<svg width="17" height="17" viewBox="0 0 17 17" fill="none" xmlns="http://www.w3.org/2000/svg">
    <path d="M15.7028 1.37274H11.016C10.9116 0.599031 10.2486 0 9.4467 0H2.125C0.953345 0 0 0.953345 0 2.125V14.875C0 16.0467 0.953345 17 2.125 17H8.90695C9.96457 17 10.8418 16.2223 11.003 15.2094L11.403 15.4677L12.3289 16.9027C12.3636 16.9566 12.4211 16.9919 12.4848 16.9988C12.4925 16.9996 12.4999 17 12.5074 17C12.5634 17 12.6176 16.9778 12.6577 16.9377L13.0845 16.5109C13.2441 16.3513 13.2958 16.1118 13.2196 15.912L12.9338 15.0065L13.6716 14.3535L15.3461 16.8506C15.3813 16.9035 15.4386 16.9375 15.5017 16.9438C15.5088 16.9444 15.5156 16.9448 15.5225 16.9448C15.5785 16.9448 15.6327 16.9226 15.6727 16.8825L16.1012 16.454C16.2917 16.2635 16.3696 15.9865 16.3042 15.7308C15.9631 14.3933 15.7023 13.2666 15.5685 12.6747L16.1695 12.1428C16.6443 11.7234 16.9384 11.145 16.9975 10.5144C17.0139 10.3384 16.9516 10.1658 16.8267 10.0408C16.7018 9.91591 16.5306 9.85386 16.333 9.87191C15.7165 9.9296 15.1473 10.2133 14.7295 10.6719L14.1667 11.2955C13.5666 11.1598 12.4536 10.9016 11.1396 10.5665C11.1041 10.5573 11.0681 10.5516 11.0319 10.5479V9.53511H15.7028C16.4181 9.53511 17 8.95322 17 8.2379V2.66995C17 1.95463 16.4181 1.37274 15.7028 1.37274ZM2.125 0.425H9.4467C10.0138 0.425 10.4864 0.834242 10.5866 1.37274H6.03467C5.43795 1.37274 4.93544 1.77822 4.78478 2.32775H0.425V2.125C0.425 1.18763 1.18763 0.425 2.125 0.425ZM8.90695 16.575H2.125C1.18763 16.575 0.425 15.8124 0.425 14.875V13.5423H10.6069V13.6388C10.5144 13.6651 10.4276 13.7131 10.3571 13.7837L9.93022 14.2105C9.88478 14.256 9.86237 14.3195 9.86921 14.3832C9.87606 14.4471 9.91134 14.5044 9.96529 14.5392L10.6031 14.9511C10.5628 15.853 9.81863 16.575 8.90695 16.575ZM12.4745 13.1706L11.8155 13.9008L11.0319 13.6715V12.2031L12.4745 13.1706ZM15.8925 15.8358C15.9207 15.9468 15.8856 16.0687 15.8007 16.1535L15.555 16.3992L13.9925 14.0695L15.2056 12.9958C15.35 13.6275 15.5897 14.649 15.8925 15.8358ZM15.0443 10.9574C15.3899 10.5781 15.8615 10.3428 16.3928 10.2934C16.4592 10.2863 16.5057 10.3208 16.5262 10.3413C16.547 10.3621 16.5806 10.4069 16.5742 10.4748C16.5254 10.9975 16.2818 11.4767 15.8879 11.8243L12.5487 14.7795C12.5407 14.7866 12.5369 14.7961 12.5302 14.8041C12.5193 14.817 12.5076 14.829 12.5001 14.844C12.4938 14.8566 12.492 14.8703 12.4883 14.8838C12.4848 14.8966 12.4794 14.9087 12.4784 14.9222C12.4769 14.9417 12.4808 14.9609 12.4846 14.9801C12.4862 14.9877 12.4847 14.9951 12.4871 15.0026L12.488 15.0055C12.4882 15.0061 12.4883 15.0067 12.4885 15.0073L12.8183 16.051C12.8392 16.1062 12.8257 16.1687 12.784 16.2104L12.5433 16.4511L11.7352 15.1987C11.719 15.1734 11.6975 15.1518 11.6719 15.1354L10.4169 14.3249L10.6576 14.0841C10.6991 14.0426 10.7613 14.0292 10.8311 14.0549L11.824 14.3462C11.8351 14.3495 11.846 14.3477 11.8571 14.3491C11.8718 14.351 11.8861 14.3541 11.9009 14.3529C11.916 14.3517 11.9295 14.3466 11.9438 14.3423C11.9556 14.3388 11.9675 14.3368 11.9787 14.3312C11.9942 14.3234 12.0069 14.3119 12.02 14.3005C12.0269 14.2946 12.0353 14.2915 12.0415 14.2846L15.0443 10.9574ZM13.8404 11.6571L12.762 12.852L10.4716 11.3156L10.7173 11.0699C10.8022 10.9853 10.9244 10.9502 11.0349 10.9782C12.1993 11.2752 13.2058 11.5118 13.8404 11.6571ZM10.6069 10.6318C10.538 10.6677 10.4733 10.713 10.4169 10.7694L9.98833 11.198C9.9433 11.2428 9.92089 11.3057 9.92711 11.3688C9.93334 11.432 9.96737 11.4893 10.0203 11.5246L10.6069 11.9181V13.1173H0.425V2.75275H4.73746V8.2379C4.73746 8.95322 5.31935 9.53511 6.03467 9.53511H10.6069V10.6318ZM16.575 8.2379C16.575 8.71893 16.1838 9.11011 15.7028 9.11011H6.03467C5.55364 9.11011 5.16246 8.71893 5.16246 8.2379V2.66995C5.16246 2.18892 5.55364 1.79774 6.03467 1.79774H15.7028C16.1838 1.79774 16.575 2.18892 16.575 2.66995V8.2379Z" fill="black"/>
    <path d="M6.38926 6.24609C6.2718 6.24609 6.17676 6.34114 6.17676 6.45859C6.17676 6.57605 6.2718 6.67109 6.38926 6.67109H7.67194C7.78939 6.67109 7.88444 6.57605 7.88444 6.45859C7.88444 6.34114 7.78939 6.24609 7.67194 6.24609H6.38926Z" fill="black"/>
    <path d="M15.0421 6.24609H13.7594C13.6419 6.24609 13.5469 6.34114 13.5469 6.45859C13.5469 6.57605 13.6419 6.67109 13.7594 6.67109H15.0421C15.1595 6.67109 15.2546 6.57605 15.2546 6.45859C15.2546 6.34114 15.1595 6.24609 15.0421 6.24609Z" fill="black"/>
    <path d="M11.3023 6.67109H12.585C12.7025 6.67109 12.7975 6.57605 12.7975 6.45859C12.7975 6.34114 12.7025 6.24609 12.585 6.24609H11.3023C11.1849 6.24609 11.0898 6.34114 11.0898 6.45859C11.0898 6.57605 11.1849 6.67109 11.3023 6.67109Z" fill="black"/>
    <path d="M8.84629 6.67109H10.1292C10.2466 6.67109 10.3417 6.57605 10.3417 6.45859C10.3417 6.34114 10.2466 6.24609 10.1292 6.24609H8.84629C8.72883 6.24609 8.63379 6.34114 8.63379 6.45859C8.63379 6.57605 8.72883 6.67109 8.84629 6.67109Z" fill="black"/>
    <path d="M12.8233 7.63672H11.3023C11.1849 7.63672 11.0898 7.73176 11.0898 7.84922C11.0898 7.96667 11.1849 8.06172 11.3023 8.06172H12.8233C12.9407 8.06172 13.0358 7.96667 13.0358 7.84922C13.0358 7.73176 12.9407 7.63672 12.8233 7.63672Z" fill="black"/>
    <path d="M15.0416 2.84766H11.3023C11.1849 2.84766 11.0898 2.9427 11.0898 3.06016C11.0898 3.17761 11.1849 3.27266 11.3023 3.27266H15.0416C15.1591 3.27266 15.2541 3.17761 15.2541 3.06016C15.2541 2.9427 15.1591 2.84766 15.0416 2.84766Z" fill="black"/>
    <path d="M15.0416 4.23828H11.3023C11.1849 4.23828 11.0898 4.33333 11.0898 4.45078C11.0898 4.56824 11.1849 4.66328 11.3023 4.66328H15.0416C15.1591 4.66328 15.2541 4.56824 15.2541 4.45078C15.2541 4.33333 15.1591 4.23828 15.0416 4.23828Z" fill="black"/>
    <path d="M10.2822 7.63672H6.38145C6.26399 7.63672 6.16895 7.73176 6.16895 7.84922C6.16895 7.96667 6.26399 8.06172 6.38145 8.06172H10.2822C10.3996 8.06172 10.4947 7.96667 10.4947 7.84922C10.4947 7.73176 10.3996 7.63672 10.2822 7.63672Z" fill="black"/>
    <path d="M6.67882 5.35927H8.17026C8.45145 5.35927 8.68014 5.13058 8.68014 4.84939V3.35732C8.68014 3.07634 8.45145 2.84766 8.17026 2.84766H6.67882C6.39763 2.84766 6.16895 3.07634 6.16895 3.35732V4.84939C6.16895 5.13058 6.39763 5.35927 6.67882 5.35927ZM6.59395 3.35732C6.59395 3.31063 6.63192 3.27266 6.67882 3.27266H8.17026C8.21716 3.27266 8.25514 3.31063 8.25514 3.35732V4.84939C8.25514 4.89629 8.21716 4.93427 8.17026 4.93427H6.67882C6.63192 4.93427 6.59395 4.89629 6.59395 4.84939V3.35732Z" fill="black"/>
    <path d="M5.51614 14.0762C4.9548 14.0762 4.49805 14.5329 4.49805 15.0943C4.49805 15.6556 4.9548 16.1124 5.51614 16.1124C6.07748 16.1124 6.53402 15.6556 6.53402 15.0943C6.53402 14.5329 6.07748 14.0762 5.51614 14.0762ZM5.51614 15.6874C5.18909 15.6874 4.92305 15.4213 4.92305 15.0943C4.92305 14.7672 5.18909 14.5012 5.51614 14.5012C5.84298 14.5012 6.10902 14.7672 6.10902 15.0943C6.10902 15.4213 5.84298 15.6874 5.51614 15.6874Z" fill="black"/>
</svg>
