<svg width="20" height="20" viewBox="0 0 20 20" fill="none" xmlns="http://www.w3.org/2000/svg">
    <path fill-rule="evenodd" clip-rule="evenodd" d="M11.2265 2.23375H14.7842C15.1768 2.23375 15.5349 2.51955 15.5349 2.90799V9.13155H15.8338C16.0079 9.13155 16.1508 9.27445 16.1508 9.44855C16.1508 9.50768 16.1426 9.95938 16.1566 9.97662L16.173 9.98647C16.5935 10.085 16.9926 10.2517 17.3589 10.4784L17.395 10.4735L17.7555 10.1129C17.8804 9.98811 18.0865 9.9914 18.2031 10.1129L19.0186 10.9285C19.1418 11.0516 19.1418 11.2529 19.0186 11.3769L18.6548 11.7407L18.6532 11.7743C18.8798 12.1406 19.0465 12.5398 19.1451 12.9602L19.1549 12.9767C19.1714 12.9898 19.6247 12.9824 19.683 12.9824C19.8571 12.9824 20 13.1253 20 13.2994V14.4525C20 14.6266 19.8579 14.7695 19.683 14.7695C19.6239 14.7695 19.1722 14.7612 19.1549 14.7752L19.1451 14.7916C19.0465 15.2121 18.8806 15.6112 18.6532 15.9775L18.6581 16.0137L19.0285 16.3857C19.1434 16.5187 19.1385 16.7035 19.0186 16.8226L18.2031 17.6381C18.0799 17.7613 17.8795 17.7621 17.7547 17.6381L17.3909 17.2743L17.3572 17.2726C16.9909 17.4993 16.5918 17.666 16.1713 17.7645L16.1491 17.7933V18.3025C16.1491 18.4766 16.0062 18.6195 15.8321 18.6195H15.5332V19.3258C15.5332 19.7142 15.1751 20 14.7826 20L0.750626 19.9984C0.358063 19.9984 0 19.7126 0 19.3241L0.000821206 2.90806C0.000821206 2.51877 0.358884 2.23381 0.751447 2.23381H4.30915L4.30833 1.78869C4.30833 1.70985 4.37239 1.64497 4.45205 1.64497H5.98453C6.05762 0.721065 6.83123 0 7.76748 0C8.70289 0 9.47733 0.721065 9.55125 1.64497H11.0837C11.1626 1.64497 11.2274 1.70903 11.2274 1.78869L11.2265 2.23375ZM16.697 14.7202H17.2136C17.4033 14.7202 17.4033 14.4327 17.2136 14.4327H16.95V13.3865C16.95 13.3076 16.8859 13.2427 16.8062 13.2427H16.3546V12.1956C16.3546 12.1168 16.2905 12.0519 16.2108 12.0519H15.02C14.9412 12.0519 14.8763 12.116 14.8763 12.1956V13.2419L14.4262 13.2427C14.3474 13.2427 14.2825 13.3068 14.2825 13.3865V14.4327H14.0107V12.5981C14.0107 12.5512 13.9877 12.5085 13.9524 12.4831L13.3906 12.0068C13.2477 11.8852 13.0621 12.1037 13.205 12.2252L13.7232 12.6646V14.5239C13.2995 14.8146 13.5064 15.4807 14.0189 15.4807C14.4106 15.4807 14.6619 15.0659 14.487 14.7202H15.7616C15.5867 15.0659 15.8371 15.4807 16.2297 15.4807C16.6215 15.4807 16.8719 15.0659 16.697 14.7202ZM16.3973 14.7892C16.2486 14.6405 15.9932 14.7465 15.9932 14.9567C15.9932 15.1669 16.2486 15.2721 16.3973 15.1242C16.4892 15.0314 16.4892 14.882 16.3973 14.7892ZM16.3554 13.5302V13.7757C16.3554 13.9655 16.0679 13.9655 16.0679 13.7757V13.5302H15.7608V14.4336H16.6642V13.5302H16.3554ZM15.1654 13.5302V13.7757C15.1654 13.9655 14.8779 13.9655 14.8779 13.7757V13.5302H14.5708V14.4336H15.4742V13.5302H15.1654ZM15.7599 12.3394V12.5849C15.7599 12.7746 15.4725 12.7746 15.4725 12.5849V12.3394H15.1654V13.2427H16.0687V12.3394H15.7599ZM14.1864 14.7891C14.0378 14.6404 13.7823 14.7464 13.7823 14.9566C13.7823 15.1669 14.0378 15.2728 14.1864 15.1242C14.2784 15.0314 14.2784 14.8819 14.1864 14.7891ZM2.20264 9.22106V15.0601H2.7307V9.22106H2.20264ZM1.91602 15.0601V9.22106H1.38795V15.0601H1.91602ZM1.38795 8.93345H2.72988V8.37582H1.38795V8.93345ZM1.38795 8.08838H2.72988V7.1193C2.72988 6.89755 2.54839 6.71523 2.32582 6.71523L1.792 6.71605C1.57025 6.71605 1.38793 6.89755 1.38793 7.12012L1.38795 8.08838ZM2.61738 15.3474H1.50048L2.05892 16.2573L2.61738 15.3474ZM1.79202 6.42853H1.91521V3.75783C1.91521 3.67899 1.97927 3.61411 2.05893 3.61411H4.3083V2.52103H0.750592C0.51571 2.52103 0.287409 2.68035 0.287409 2.90783V19.323C0.287409 19.5513 0.51489 19.7098 0.750592 19.7098H14.7834C15.0183 19.7098 15.2466 19.5505 15.2466 19.323V18.6168H14.6799C14.5058 18.6168 14.3629 18.4739 14.3629 18.2998C14.3629 18.2406 14.3711 17.7889 14.3571 17.7717L14.3407 17.7618C14.0927 17.7044 13.8496 17.6206 13.6197 17.5171V18.216C13.6197 18.2948 13.5556 18.3597 13.4759 18.3597H2.05877C1.97993 18.3597 1.91505 18.2956 1.91505 18.216V16.5718L1.11842 15.2726L1.10035 15.2036V7.11921C1.10035 6.73815 1.41095 6.42853 1.79202 6.42853ZM2.20264 6.42853H2.32583C2.70689 6.42853 3.01652 6.73897 3.01652 7.11921V15.2036C3.01652 15.2348 3.00666 15.2636 2.99023 15.2874L2.20183 16.5718V18.0714H13.3308L13.3316 17.3734L13.1345 17.265C13.109 17.2683 12.7986 17.5992 12.746 17.6444C12.613 17.7594 12.4282 17.7544 12.3091 17.6345L11.4936 16.819C11.3688 16.6942 11.3721 16.4881 11.4936 16.3715L11.8574 16.0076L11.8591 15.974C11.6324 15.6077 11.4657 15.2086 11.3671 14.7881L11.3384 14.7659H10.8292C10.6551 14.7659 10.5122 14.623 10.5122 14.4489V13.2959C10.5122 13.1217 10.6543 12.9788 10.8292 12.9788C10.8883 12.9788 11.34 12.9871 11.3573 12.9731L11.3671 12.9567C11.4657 12.5362 11.6324 12.1371 11.8591 11.7708L11.8541 11.7347L11.4936 11.3741C11.3704 11.2509 11.3704 11.0497 11.4936 10.9257L12.3091 10.1102C12.4339 9.98539 12.6401 9.98868 12.7567 10.1102C12.7978 10.1513 13.1131 10.4773 13.1345 10.4798L13.3316 10.3714V3.90163H11.2258V4.38123C11.2258 4.46007 11.1617 4.52495 11.0821 4.52495H4.45212C4.37328 4.52495 4.3084 4.46089 4.3084 4.38123V3.90163H2.20262L2.20264 6.42853ZM12.4437 12.7021L12.5464 12.666C12.2606 13.3082 12.2179 14.0079 12.3903 14.6501C12.833 16.3017 14.575 17.2445 16.1953 16.7287C16.3751 16.6712 16.2881 16.3994 16.1082 16.4561C14.6448 16.9217 13.0671 16.0684 12.6672 14.5762C12.5145 14.0079 12.5481 13.3912 12.792 12.8212L12.8118 12.8779C12.8742 13.0561 13.1444 12.9616 13.0828 12.7834L12.9407 12.3761C12.9144 12.3013 12.8331 12.2619 12.7584 12.2874L12.351 12.4294C12.1712 12.4935 12.2647 12.7637 12.4437 12.7021ZM17.864 15.4533L17.8065 15.4665C18.1662 14.89 18.3107 14.2264 18.2483 13.5834C18.0405 11.4383 15.6926 10.2243 13.8185 11.2699C13.6535 11.3618 13.7939 11.6115 13.9581 11.5203C14.9248 10.9816 16.1287 11.0793 16.9951 11.793C18.0643 12.6734 18.2787 14.1992 17.5445 15.3457L17.5199 15.2356C17.4788 15.0516 17.1996 15.1141 17.2406 15.2972L17.3334 15.7136C17.3499 15.7974 17.4279 15.8466 17.5108 15.8269L17.9264 15.7349C18.1104 15.6914 18.0479 15.4123 17.864 15.4533ZM15.2458 9.13139V2.90783C15.2458 2.67953 15.0183 2.52102 14.7826 2.52102H11.2249V3.61411H13.4743C13.5531 3.61411 13.618 3.67817 13.618 3.75783V10.2309C13.848 10.1275 14.0919 10.0445 14.3391 9.98621L14.3613 9.95746V9.44746C14.3613 9.27335 14.5033 9.13046 14.6783 9.13046L15.2458 9.13139ZM13.5507 10.5817L13.3044 10.7213C13.1779 10.7993 13.0186 10.7805 12.9143 10.6762L12.5537 10.3156H12.5127L11.6972 11.1311V11.1722L12.0577 11.5327C12.162 11.637 12.1809 11.7972 12.1029 11.9228C11.8934 12.2612 11.739 12.6324 11.6471 13.0233C11.6134 13.1662 11.4861 13.2681 11.3391 13.2681H10.8299L10.8003 13.2976V14.4507C10.8003 14.4671 10.8127 14.4802 10.8299 14.4802H11.3391C11.4861 14.4802 11.6134 14.5821 11.6471 14.725C11.739 15.1151 11.8934 15.4879 12.1029 15.8255C12.1809 15.9511 12.162 16.1113 12.0577 16.2156L11.6972 16.5761V16.6171L12.5127 17.4327L12.5513 17.4359L12.9143 17.0721C13.0186 16.9678 13.1787 16.9489 13.3044 17.0269C13.6427 17.2364 14.0164 17.3916 14.4049 17.4828C14.5478 17.5164 14.6496 17.6437 14.6496 17.7907V18.3007C14.6496 18.3171 14.6628 18.3303 14.6792 18.3303H15.8322C15.8487 18.3303 15.8618 18.3171 15.8618 18.3007V17.7915C15.8618 17.6445 15.9636 17.5172 16.1065 17.4836C16.4966 17.3916 16.8695 17.2372 17.207 17.0278C17.3327 16.9498 17.4928 16.9686 17.5971 17.0729L17.9576 17.4335L17.9962 17.4367L18.8142 16.6188L18.8175 16.5802L18.4537 16.2172C18.3494 16.1129 18.3305 15.9527 18.4085 15.8271C18.6179 15.4895 18.7731 15.1167 18.8643 14.7266C18.898 14.5837 19.0253 14.4818 19.1723 14.4818H19.6823L19.7118 14.4523V13.2992C19.7118 13.2828 19.6987 13.2697 19.6823 13.2697H19.1731C19.0992 13.2697 19.031 13.245 18.976 13.2007C18.9218 13.1572 18.8815 13.0964 18.8643 13.0249C18.7723 12.634 18.6179 12.262 18.4085 11.9245C18.3305 11.7988 18.3494 11.6386 18.4537 11.5343L18.8142 11.1738V11.1328L17.9987 10.3173H17.9576L17.5971 10.6778C17.4928 10.7821 17.3327 10.801 17.207 10.723C16.8694 10.5135 16.4974 10.3583 16.1065 10.2671C15.9636 10.2335 15.8618 10.1062 15.8618 9.95919V9.44918C15.8618 9.43276 15.8486 9.41962 15.8322 9.41962H14.6791L14.6496 9.44918L14.6504 9.95755C14.6504 10.1046 14.5486 10.2318 14.4057 10.2655C14.1075 10.3353 13.821 10.4421 13.5507 10.5817ZM7.47098 16.7098H10.1072C10.2969 16.7098 10.2969 16.4224 10.1072 16.4224H7.47098C7.28209 16.4224 7.28209 16.7098 7.47098 16.7098ZM7.47098 16.038H10.1072C10.2969 16.038 10.2969 15.7506 10.1072 15.7506H7.47098C7.28209 15.7506 7.28209 16.038 7.47098 16.038ZM7.47098 15.3663H10.1072C10.2969 15.3663 10.2969 15.0788 10.1072 15.0788H7.47098C7.28209 15.0788 7.28209 15.3663 7.47098 15.3663ZM7.47098 13.6301H10.1072C10.2969 13.6301 10.2969 13.3427 10.1072 13.3427H7.47098C7.28209 13.3427 7.28209 13.6301 7.47098 13.6301ZM7.47098 12.9583H10.1072C10.2969 12.9583 10.2969 12.6709 10.1072 12.6709H7.47098C7.28209 12.6709 7.28209 12.9583 7.47098 12.9583ZM7.47098 12.2866H10.1072C10.2969 12.2866 10.2969 11.9991 10.1072 11.9991H7.47098C7.28209 11.9991 7.28209 12.2866 7.47098 12.2866ZM7.47098 10.5964H10.1072C10.2969 10.5964 10.2969 10.309 10.1072 10.309H7.47098C7.28209 10.309 7.28209 10.5964 7.47098 10.5964ZM7.47098 9.92463H10.1072C10.2969 9.92463 10.2969 9.63719 10.1072 9.63719H7.47098C7.28209 9.63719 7.28209 9.92463 7.47098 9.92463ZM7.47098 9.25284H10.1072C10.2969 9.25284 10.2969 8.9654 10.1072 8.9654H7.47098C7.28209 8.9654 7.28209 9.25284 7.47098 9.25284ZM7.47098 7.65631H10.1072C10.2969 7.65631 10.2969 7.36887 10.1072 7.36887H7.47098C7.28209 7.36887 7.28209 7.65631 7.47098 7.65631ZM7.47098 6.98453H10.1072C10.2969 6.98453 10.2969 6.69709 10.1072 6.69709H7.47098C7.28209 6.69709 7.28209 6.98453 7.47098 6.98453ZM7.47098 6.31275H10.1072C10.2969 6.31275 10.2969 6.02531 10.1072 6.02531H7.47098C7.28209 6.02531 7.28209 6.31275 7.47098 6.31275ZM4.1458 11.6485C4.06696 11.6485 4.00208 11.7125 4.00208 11.7922V13.8371C4.00208 13.916 4.06614 13.9808 4.1458 13.9808H6.19073C6.26958 13.9808 6.33445 13.9168 6.33445 13.8371V11.7922C6.33445 11.7133 6.27039 11.6485 6.19073 11.6485H4.1458ZM6.04619 11.9359H4.2887V13.6934H6.04619V11.9359ZM4.1458 8.61556C4.06696 8.61556 4.00208 8.67962 4.00208 8.75928V10.8042C4.00208 10.8831 4.06614 10.9479 4.1458 10.9479H6.19073C6.26958 10.9479 6.33445 10.8839 6.33445 10.8042V8.75928C6.33445 8.68044 6.27039 8.61556 6.19073 8.61556H4.1458ZM6.04619 8.903H4.2887V10.6605H6.04619V8.903ZM4.1458 5.67475C4.06696 5.67475 4.00208 5.73881 4.00208 5.81847L4.00126 7.8634C4.00126 7.94224 4.06532 8.00712 4.14498 8.00712H6.18991C6.26875 8.00712 6.33363 7.94306 6.33363 7.8634V5.81847C6.33363 5.73963 6.26957 5.67475 6.18991 5.67475H4.1458ZM6.04619 5.96219H4.2887V7.71968H6.04619V5.96219ZM4.1458 14.7282C4.06696 14.7282 4.00208 14.7923 4.00208 14.8719V16.9169C4.00208 16.9957 4.06614 17.0606 4.1458 17.0606H6.19073C6.26958 17.0606 6.33445 16.9965 6.33445 16.9169V14.8719C6.33445 14.7931 6.27039 14.7282 6.19073 14.7282H4.1458ZM6.04619 15.0156H4.2887V16.7731H6.04619V15.0156ZM6.12175 1.93233H4.59586V4.23678H10.9393V1.93233H9.41256C9.33372 1.93233 9.26884 1.86827 9.26884 1.78861C9.26884 0.959144 8.59705 0.28736 7.76759 0.28736C6.93894 0.28736 6.26634 0.959144 6.26634 1.78861C6.26634 1.86827 6.20141 1.93233 6.12175 1.93233Z" fill="black"/>
</svg>
