<?xml version="1.0" encoding="UTF-8"?>
<svg width="67px" height="73px" viewBox="0 0 67 73" version="1.1" xmlns="http://www.w3.org/2000/svg" xmlns:xlink="http://www.w3.org/1999/xlink">
    <!-- Generator: Sketch 53.2 (72643) - https://sketchapp.com -->
    <title>noun_coach scheme_1974045</title>
    <desc>Created with Sketch.</desc>
    <g id="Page-1" stroke="none" stroke-width="1" fill="none" fill-rule="evenodd">
        <g id="Artboard" transform="translate(-941.000000, -512.000000)" fill="#000000" fill-rule="nonzero">
            <g id="noun_coach-scheme_1974045" transform="translate(941.000000, 512.000000)">
                <g id="Group">
                    <ellipse id="Oval" cx="21.9482759" cy="6.57" rx="1.15517241" ry="1.168"></ellipse>
                    <path d="M9.53017241,25.112 L32.0560345,25.112 C32.9224138,25.112 33.5,24.528 33.5,23.652 C33.5,22.776 32.9224138,22.192 32.0560345,22.192 L9.53017241,22.192 C8.6637931,22.192 8.0862069,22.776 8.0862069,23.652 C8.0862069,24.528 8.80818966,25.112 9.53017241,25.112 Z" id="Path"></path>
                    <path d="M9.53017241,33.288 L24.9806034,33.288 C25.8469828,33.288 26.424569,32.704 26.424569,31.828 C26.424569,30.952 25.8469828,30.368 24.9806034,30.368 L9.53017241,30.368 C8.6637931,30.368 8.0862069,30.952 8.0862069,31.828 C8.0862069,32.704 8.80818966,33.288 9.53017241,33.288 Z" id="Path"></path>
                    <path d="M9.53017241,41.318 L32.0560345,41.318 C32.9224138,41.318 33.5,40.734 33.5,39.858 C33.5,38.982 32.9224138,38.398 32.0560345,38.398 L9.53017241,38.398 C8.6637931,38.398 8.0862069,38.982 8.0862069,39.858 C8.0862069,40.734 8.80818966,41.318 9.53017241,41.318 Z" id="Path"></path>
                    <path d="M20.2155172,47.888 C20.2155172,47.012 19.637931,46.428 18.7715517,46.428 L9.53017241,46.428 C8.6637931,46.428 8.0862069,47.012 8.0862069,47.888 C8.0862069,48.764 8.6637931,49.348 9.53017241,49.348 L18.7715517,49.348 C19.637931,49.348 20.2155172,48.764 20.2155172,47.888 Z" id="Path"></path>
                    <path d="M65.4116379,43.508 L43.4633621,43.508 L43.4633621,13.724 C43.4633621,10.658 41.0086207,8.176 37.9762931,8.176 L33.3556034,8.176 L33.3556034,6.278 C33.3556034,5.402 32.7780172,4.818 31.9116379,4.818 L27.8685345,4.818 C26.8577586,2.482 24.5474138,0.73 21.9482759,0.73 C19.3491379,0.73 17.0387931,2.336 16.0280172,4.818 L11.8405172,4.818 C10.9741379,4.818 10.3965517,5.402 10.3965517,6.278 L10.3965517,8.176 L5.63146552,8.176 C2.59913793,8.176 0.144396552,10.658 0.144396552,13.724 L0.144396552,65.116 C0.144396552,68.182 2.59913793,70.664 5.63146552,70.664 L26.8577586,70.664 C35.9547414,75.336 46.9288793,69.788 48.3728448,59.86 C48.8060345,56.648 51.549569,54.166 55.0150862,53.728 L65.4116379,52.706 C66.1336207,52.56 66.7112069,51.976 66.7112069,51.246 L66.7112069,45.114 C66.8556034,44.238 66.1336207,43.508 65.4116379,43.508 Z M13.2844828,7.738 C13.862069,7.738 16.1724138,7.738 17.6163793,7.738 C18.1939655,7.738 18.6271552,7.3 18.7715517,6.862 C19.0603448,5.402 19.7823276,3.796 22.0926724,3.796 C24.4030172,3.796 24.9806034,5.402 25.4137931,6.862 C25.2693966,7.3 25.8469828,7.738 26.2801724,7.738 C27.7241379,7.738 30.4676724,7.738 30.4676724,7.738 L30.4676724,14.892 L13.2844828,14.892 C13.2844828,14.6 13.2844828,7.592 13.2844828,7.738 Z M5.63146552,67.744 C4.1875,67.744 3.03232759,66.576 3.03232759,65.116 L3.03232759,13.724 C3.03232759,12.264 4.1875,11.096 5.63146552,11.096 L10.3965517,11.096 L10.3965517,16.352 C10.3965517,17.228 10.9741379,17.812 11.8405172,17.812 L31.9116379,17.812 C32.7780172,17.812 33.3556034,17.228 33.3556034,16.352 L33.3556034,11.096 L37.9762931,11.096 C39.4202586,11.096 40.575431,12.264 40.575431,13.724 L40.575431,43.654 L34.0775862,43.654 C26.1357759,43.654 19.4935345,49.494 18.9159483,56.94 C18.6271552,61.028 20.0711207,64.97 22.9590517,67.744 L5.63146552,67.744 Z M63.9676724,49.932 L54.8706897,50.954 C50.1056034,51.392 46.3512931,55.042 45.6293103,59.568 C44.3297414,67.744 35.2327586,71.978 27.8685345,68.036 C23.825431,65.846 21.5150862,61.612 21.8038793,57.232 C22.237069,51.246 27.5797414,46.72 34.0775862,46.72 L63.8232759,46.72 L63.8232759,49.932 L63.9676724,49.932 Z" id="Shape"></path>
                    <path d="M25.7025862,57.378 C25.7025862,58.254 26.2801724,58.838 27.1465517,58.838 C28.012931,58.838 28.5905172,58.254 28.5905172,57.378 C28.5905172,54.166 31.1896552,51.684 34.2219828,51.684 C35.0883621,51.684 35.6659483,51.1 35.6659483,50.224 C35.6659483,49.348 35.0883621,48.764 34.2219828,48.764 C29.6012931,48.764 25.7025862,52.706 25.7025862,57.378 Z" id="Path"></path>
                </g>
            </g>
        </g>
    </g>
</svg>