<?xml version="1.0" encoding="UTF-8"?>
<svg width="80px" height="61px" viewBox="0 0 80 61" version="1.1" xmlns="http://www.w3.org/2000/svg" xmlns:xlink="http://www.w3.org/1999/xlink">
    <!-- Generator: Sketch 53.2 (72643) - https://sketchapp.com -->
    <title>noun_chat_27351</title>
    <desc>Created with Sketch.</desc>
    <g id="Page-1" stroke="none" stroke-width="1" fill="none" fill-rule="evenodd">
        <g id="Artboard" transform="translate(-910.000000, -433.000000)" fill="#000000" fill-rule="nonzero">
            <g id="noun_chat_27351" transform="translate(910.000000, 433.000000)">
                <g id="Group" transform="translate(40.000000, 30.500000) scale(-1, 1) rotate(-180.000000) translate(-40.000000, -30.500000) ">
                    <path d="M30.63824,60.9326509 C29.64136,60.7756904 28.70384,60.3086667 27.9648,59.5999736 C27.07808,58.7562609 26.53744,57.6401779 26.4148,56.4142306 C26.38592,56.1253847 26.37264,54.5305441 26.3812,51.8746733 L26.39368,47.7808419 L27.4288,47.7683043 C27.9944,47.7597049 28.52256,47.7635626 28.59832,47.7808419 L28.73736,47.805917 L28.73736,52.0786495 C28.73736,56.2658696 28.73736,56.3592582 28.8264,56.6684374 C29.02016,57.3810685 29.55688,58.0348696 30.21544,58.3613281 C30.8912,58.6925283 28.6576,58.6627115 53.324,58.654112 L75.46544,58.6415744 L75.80296,58.5230303 C76.542,58.2593399 77.04048,57.8143373 77.3912,57.1142437 C77.7076,56.477722 77.68648,57.5215534 77.66936,43.3259934 C77.66152,31.4637036 77.65688,30.5815744 77.58968,30.3648999 C77.28968,29.406581 76.58424,28.7064875 75.63424,28.4263215 C75.40608,28.3627497 75.0936,28.3541502 72.64832,28.3375942 L69.9124,28.324253 L69.90384,24.4847892 L69.89136,20.6413874 L68.31168,22.2707062 C67.44136,23.1615152 66.30152,24.3364282 65.77336,24.8709618 C65.24992,25.4101568 64.2788,26.406892 63.62416,27.0897062 L62.42496,28.3289947 L59.56168,28.3289947 L56.69448,28.3289947 L56.69448,27.1619578 L56.69448,25.9956443 L59.07184,25.9909025 L61.44528,25.9909025 L63.34528,24.0311067 C67.62344,19.6147549 68.4976,18.7152661 69.46872,17.7350066 C70.45312,16.7429328 70.49056,16.7084545 70.7312,16.6409447 C71.18744,16.5090593 71.6312,16.6409447 71.94368,16.9973004 C72.2476,17.3410382 72.23512,17.1283821 72.23512,21.7998248 L72.23512,25.9870448 L73.9156,26.0082622 C75.2336,26.0255415 75.65936,26.0420171 75.90856,26.0977128 C77.9484,26.5387773 79.414,27.9766574 79.90384,30.0259038 C79.9796,30.3272872 79.98432,30.9590672 79.99216,43.3173939 C80.00936,57.5812675 80.02184,56.6943966 79.75152,57.5169723 C79.13512,59.3715652 77.60232,60.643805 75.61328,60.9538682 C75.432,60.9789433 67.77496,60.9962227 53.168,60.9915613 C34.9164,60.9876232 30.9336,60.9789433 30.63824,60.9326509 Z" id="Path"></path>
                    <path d="M4.15544,44.5991173 C2.17888,44.2381001 0.65464,42.8253755 0.114,40.8569802 L0,40.4409104 L0,27.2043926 C0,16.3224427 0.00856,13.9254401 0.05472,13.7347246 C0.30392,12.7034308 0.69688,11.9570448 1.36016,11.2694888 C2.06952,10.5277642 2.78752,10.1071133 3.82184,9.82300922 C4.10936,9.74296179 4.282,9.73428195 5.65936,9.717083 C6.49528,9.70848353 7.47496,9.69980369 7.8336,9.69200791 L8.48832,9.68340843 L8.50944,5.31334914 C8.5352,0.400960474 8.50552,0.78713307 8.86024,0.422177866 C9.24856,0.0234677207 9.8524,-0.0361660079 10.3212,0.277754941 C10.41416,0.341326746 11.61808,1.52098155 12.99464,2.89520949 C14.3712,4.26943742 16.4704,6.36586034 17.65248,7.54937286 L19.81032,9.70454545 L34.4392,9.70454545 C44.00016,9.70454545 49.16032,9.72102108 49.33376,9.74689987 C51.49544,10.0993175 53.21888,11.8549763 53.52672,14.0148906 C53.56112,14.2566403 53.56888,17.9218643 53.56112,27.3958314 L53.54864,40.44083 L53.43848,40.8442819 C53.19784,41.7099354 52.7924,42.4437839 52.21352,43.0669644 C51.52992,43.8016166 50.68536,44.2889736 49.59944,44.5691397 C49.34632,44.6327115 47.67368,44.6366495 26.90104,44.645249 C8.02424,44.6540092 4.42576,44.6454097 4.15544,44.5991173 Z M49.19376,42.2445494 C49.95392,42.0490922 50.61328,41.5232385 50.94688,40.8443623 C51.27184,40.1780237 51.24688,41.3364611 51.24688,27.1581001 C51.24688,14.7190026 51.24688,14.4176192 51.1664,14.1083597 C50.91248,13.1241621 50.15704,12.3518972 49.1984,12.1014677 C48.97416,12.0464954 47.33592,12.0378959 33.8984,12.0378959 L18.84768,12.0378959 L14.8524,8.05007115 L10.8532,4.06618445 L10.84072,8.05007115 L10.83216,12.0378959 L7.7156,12.0378959 C4.7,12.0378959 4.59064,12.041834 4.28672,12.1266232 C3.87264,12.2412292 3.5008,12.4538854 3.1672,12.7631449 C2.82968,13.0818076 2.62656,13.3871291 2.45784,13.8321318 L2.32272,14.1806113 L2.31024,27.0348946 C2.29776,41.4212503 2.27192,40.1780237 2.61024,40.8568999 C2.93912,41.5184967 3.59856,42.0490922 4.3376,42.2445494 C4.6368,42.3206588 5.13992,42.3245968 26.75712,42.3245968 C48.62816,42.3293386 48.87344,42.3293386 49.19376,42.2445494 Z" id="Shape"></path>
                </g>
            </g>
        </g>
    </g>
</svg>