<?xml version="1.0" encoding="UTF-8"?>
<svg width="82px" height="74px" viewBox="0 0 82 74" version="1.1" xmlns="http://www.w3.org/2000/svg" xmlns:xlink="http://www.w3.org/1999/xlink">
    <!-- Generator: Sketch 53.2 (72643) - https://sketchapp.com -->
    <title>noun_Compare_62588</title>
    <desc>Created with Sketch.</desc>
    <g id="Page-1" stroke="none" stroke-width="1" fill="none" fill-rule="evenodd">
        <g id="Artboard" transform="translate(-930.000000, -596.000000)" fill="#000000" fill-rule="nonzero">
            <g id="noun_Compare_62588" transform="translate(930.000000, 596.000000)">
                <path d="M55.609,15.926 L48.795,15.926 L46.437,13.251 L55.61,13.251 L55.61,15.926 L55.609,15.926 Z M70.844,21.045 L55.36,21.045 L55.36,23.72 L70.843,23.72 L70.843,21.045 L70.844,21.045 Z M70.844,28.839 L55.36,28.839 L55.36,31.514 L70.843,31.514 L70.843,28.839 L70.844,28.839 Z M70.844,36.636 L55.36,36.636 L55.36,39.311 L70.843,39.311 L70.843,36.636 L70.844,36.636 Z M26.869,24.207 L11.133,24.207 L11.133,26.882 L26.868,26.882 L26.868,24.207 L26.869,24.207 Z M42.102,32.001 L11.133,32.001 L11.133,34.676 L42.101,34.676 L42.101,32.001 L42.102,32.001 Z M42.102,39.794 L11.133,39.794 L11.133,42.469 L42.101,42.469 L42.101,39.794 L42.102,39.794 Z M38.304,47.591 L11.134,47.591 L11.134,50.266 L34.48,50.266 L38.304,47.591 Z M40.233,13.9 L40.233,24.075 L49.805,24.075 L49.805,23.825 L40.233,13.9 Z M49.801,39.725 L49.801,26.882 L37.434,26.882 L37.434,13.375 L3.55,13.375 L3.55,67.767 L41.897,67.767 L41.892,70.442 L0.875,70.442 L0.875,10.7 L40.936,10.7 L52.592,22.746 L52.592,37.45 L49.801,39.725 Z M29.125,8 L29.125,0 L69.819,0 L81.125,11.616 L81.125,60 L63.099,60 L59.224,57 L78.125,57 L78.125,16 L66.125,16 L66.125,3 L32.125,3 L32.125,8 L29.125,8 Z M69.116,2.771 L69.116,12.945 L78.687,12.945 L78.687,12.695 L69.116,2.771 Z M50.665,42.376 L38.304,50.842 L50.665,59.304 L50.665,53.646 L60.39,53.646 L60.39,47.552 L50.665,47.552 L50.665,42.376 L50.665,42.376 Z M54.297,56.958 L54.297,62.615 L44.572,62.615 L44.572,68.709 L54.297,68.709 L54.297,73.888 L66.662,65.424 L54.297,56.958 L54.297,56.958 Z" id="Shape"></path>
            </g>
        </g>
    </g>
</svg>