<?xml version="1.0" encoding="UTF-8"?>
<svg width="73px" height="73px" viewBox="0 0 73 73" version="1.1" xmlns="http://www.w3.org/2000/svg" xmlns:xlink="http://www.w3.org/1999/xlink">
    <!-- Generator: Sketch 53.2 (72643) - https://sketchapp.com -->
    <title>noun_design_117087</title>
    <desc>Created with Sketch.</desc>
    <g id="Page-1" stroke="none" stroke-width="1" fill="none" fill-rule="evenodd">
        <g id="Artboard" transform="translate(-932.000000, -270.000000)" fill="#000000" fill-rule="nonzero">
            <g id="noun_design_117087" transform="translate(932.000000, 270.000000)">
                <path d="M52.1146041,34.7617821 L66.761974,20.1148424 C67.0238175,19.8521704 67.1769564,19.506967 67.2118688,19.1411308 C67.563374,19.1062136 67.9069445,18.9609902 68.1759292,18.691176 C72.0028125,14.8637832 72.0028125,8.63663163 68.1759292,4.80923876 C66.3223942,2.9538698 63.8578909,1.93254394 61.235488,1.93254394 C58.6130851,1.93254394 56.1485818,2.95466337 54.2950468,4.80923876 C54.0197144,5.0846079 53.8745102,5.43615984 53.8435651,5.79485393 C53.4849187,5.82818391 53.1365874,5.96705883 52.8771243,6.22735012 L38.2321348,20.8774641 L17.80437,0.446979056 C17.209271,-0.149786325 16.1547556,-0.148199183 15.5596566,0.446979056 L0.464772313,15.5502221 C-0.154924104,16.170001 -0.154924104,17.1746619 0.464772313,17.7944408 L20.8885698,38.2249258 L7.64801389,51.4680384 C7.4853535,51.6307205 7.35998598,51.825939 7.28143291,52.0417903 L2.38971919,65.3214071 C1.39788753,68.0060578 2.29609028,69.4543248 2.91975403,70.0780716 C3.34267104,70.5018385 4.14486449,71.0517832 5.45646267,71.0517832 C6.07695255,71.0517832 6.81170144,70.9287797 7.67340478,70.6097642 L20.9203084,65.7293026 C21.1400983,65.6539134 21.3471927,65.5285292 21.5225485,65.35315 C21.5225485,65.35315 21.5225485,65.35315 21.5225485,65.35315 C21.523342,65.3523564 21.5241355,65.3515628 21.5241355,65.3515628 L34.7686587,52.1076567 L55.1932496,72.5349674 C55.4907991,72.8325565 55.8946729,73 56.3152095,73 C56.7365396,73 57.1404135,72.8325565 57.437963,72.5349674 L72.5352277,57.4317244 C73.1549241,56.8119455 73.1549241,55.8072846 72.5352277,55.1875057 L52.1146041,34.7617821 Z M61.2362815,5.10762146 C63.0096765,5.10762146 64.6775406,5.79882178 65.9320093,7.05425108 C68.5210866,9.64446678 68.5210866,13.8575351 65.9320093,16.4477508 C65.8288588,16.5509151 65.7487188,16.66757 65.6804808,16.7889864 L56.1993636,7.30581309 C56.3207638,7.23677241 56.4374032,7.15662174 56.5405537,7.05345751 C57.7942289,5.79882178 59.462093,5.10762146 61.2362815,5.10762146 Z M19.579352,32.4247155 L23.6625245,28.3402056 C24.2822209,27.7204267 24.2822209,26.7149723 23.6625245,26.0951933 C23.0428281,25.4762079 22.038301,25.4754144 21.4178111,26.0951933 L17.335432,30.1797032 L11.8343369,24.677082 L15.9151291,20.5957464 C16.5348255,19.9759674 16.5348255,18.9713066 15.9151291,18.3515276 C15.2954327,17.7317487 14.2901121,17.7317487 13.6712092,18.3515276 L9.590417,22.4328632 L3.83144568,16.6723314 L16.6832035,3.81330718 L35.9882149,23.1216828 L23.1324897,35.9799135 L19.579352,32.4247155 Z M20.4021755,61.9836476 L15.1811737,56.7611569 C14.5622707,56.141378 13.5561567,56.141378 12.9372537,56.7611569 C12.3175573,57.3809359 12.3175573,58.3855967 12.9372537,59.0053757 L17.5266572,63.5961838 L6.57524877,67.6314923 C5.66673098,67.9663792 5.22397733,67.8703571 5.17240208,67.8417886 C5.12796802,67.7735415 5.03116525,67.3307289 5.36759455,66.4197094 C5.36759455,66.4197094 5.36759455,66.4189158 5.36759455,66.4181222 L10.1387015,53.4654566 L24.2250914,39.3763973 C24.2354065,39.3668745 24.2473085,39.3597323 24.2576235,39.3502095 C24.2679386,39.3406866 24.2742863,39.3279895 24.2838079,39.3176731 L39.2890306,24.308865 C39.3120411,24.2882322 39.3382255,24.2731543 39.3604425,24.2501408 C39.3826595,24.2279208 39.3977354,24.2017329 39.4191589,24.1787194 L53.9990843,9.59526538 L63.3945072,18.992733 L33.7014478,48.6857786 C33.6824046,48.7032371 33.6601876,48.7159343 33.6411444,48.73498 C33.6221013,48.7540257 33.6094058,48.7754521 33.5919496,48.7944978 L20.4021755,61.9836476 Z M56.3152095,69.1670521 L50.5522709,63.4041396 L54.6354434,59.3204233 C55.2551399,58.7006444 55.2551399,57.6959835 54.6354434,57.0762046 C54.0165405,56.4564257 53.0104265,56.4564257 52.3915235,57.0762046 L48.308351,61.1599209 L42.8088428,55.6588868 L46.8928088,51.574377 C47.5125052,50.954598 47.5125052,49.9499371 46.8928088,49.3301582 C46.2739059,48.7103793 45.2677918,48.7103793 44.6488889,49.3301582 L40.5649229,53.4146681 L37.0125786,49.8626443 L49.8698907,37.0060008 L69.1677609,56.3088215 L56.3152095,69.1670521 Z" id="Shape"></path>
            </g>
        </g>
    </g>
</svg>