<?xml version="1.0" encoding="UTF-8"?>
<svg width="94px" height="60px" viewBox="0 0 94 60" version="1.1" xmlns="http://www.w3.org/2000/svg" xmlns:xlink="http://www.w3.org/1999/xlink">
    <!-- Generator: Sketch 53.2 (72643) - https://sketchapp.com -->
    <title>noun_hand shake_821752</title>
    <desc>Created with Sketch.</desc>
    <g id="Page-1" stroke="none" stroke-width="1" fill="none" fill-rule="evenodd">
        <g id="Artboard" transform="translate(-1082.000000, -357.000000)" fill="#000000" fill-rule="nonzero">
            <g id="noun_hand-shake_821752" transform="translate(1082.000000, 357.000000)">
                <path d="M82.6006988,35.1439841 L94,26.4216004 L73.9627534,0.00111113169 L62.5667698,8.72460601 L62.9693062,9.25461583 L40.5566523,9.25461583 C39.0792108,9.25461583 35.4884531,9.57795515 33.4846178,12.3468953 L29.9292479,10.7057538 L31.4310185,8.72349488 L20.0350349,0 L0,26.4216004 L11.3993012,35.1439841 L13.584499,32.2639308 L16.1777626,34.2539677 L15.8382607,34.7228652 C14.939189,35.9495546 14.5687227,37.4529158 14.7965318,38.9551658 C15.0177057,40.4185263 15.785179,41.69855 16.9518712,42.5607882 C17.8896484,43.2563566 19.0087881,43.6230301 20.1843272,43.6230301 C20.5581111,43.6230301 20.9252597,43.5630289 21.2879848,43.4896943 C20.8367902,45.5841775 21.574405,47.8264412 23.3703368,49.157577 C24.308114,49.849812 25.4228303,50.2175966 26.5983694,50.2175966 C27.1336102,50.2175966 27.6533688,50.1164836 28.1587511,49.967592 C28.1078811,50.4342673 28.0946107,50.9064983 28.1620687,51.3798404 C28.3721839,52.8687568 29.140763,54.1732254 30.3295726,55.0521306 C31.2684557,55.7443656 32.3820661,56.109928 33.5576052,56.109928 C34.8990247,56.109928 36.1906801,55.62103 37.2025506,54.7610141 C37.4546888,56.0799274 38.1558099,57.3043945 39.3014906,58.152188 C40.2436913,58.8488676 41.3617252,59.2166522 42.5372643,59.2166522 C43.665251,59.2166522 44.7346267,58.8410896 45.6536041,58.2210782 L46.6245574,58.9222023 C47.5999341,59.6311043 48.743403,60 49.920048,60 C50.2241621,60 50.5326996,59.9755551 50.8390254,59.9255542 C52.2943495,59.6855497 53.5660992,58.8988685 54.4131951,57.7099576 C55.1707156,56.6566048 55.4693004,55.4188041 55.3985247,54.2010037 L55.5290173,54.2976722 C56.5342525,55.0187966 57.6943095,55.3665809 58.8377784,55.3665809 C60.5640404,55.3665809 62.2549146,54.5721217 63.3220786,53.0754273 C64.1702803,51.8754051 64.4544888,50.4453786 64.2587499,49.0797978 C64.9101069,49.3286913 65.5857931,49.4675827 66.2625851,49.4675827 C67.9888472,49.4675827 69.6819332,48.6742347 70.7513088,47.1764292 C71.6360043,45.9308506 71.9246362,44.4297117 71.6780273,43.0163522 C72.1922566,43.1630215 72.7175445,43.2463564 73.2417266,43.2463564 C74.9679886,43.2463564 76.6566511,42.4507861 77.7249209,40.956314 C78.5852872,39.7507361 78.917048,38.2718198 78.6593805,36.7906813 C78.4559005,35.6373266 77.9096011,34.6039741 77.1012106,33.7872924 L79.933342,31.6261412 L82.6006988,35.1439841 Z M73.5889695,2.77894035 L91.2331149,26.0460379 L82.9733768,32.3683772 L65.332549,9.10016852 L73.5889695,2.77894035 Z M11.0255173,32.3694883 L2.76577923,26.047149 L20.4099246,2.78005148 L28.6663451,9.10127965 L11.0255173,32.3694883 Z M18.1196692,40.9663142 C17.376525,40.416304 16.8877307,39.5962888 16.7450736,38.6573825 C16.5968871,37.6773644 16.8390725,36.6984574 17.4307126,35.8917758 L19.2354913,33.3872849 C19.9310832,32.4383785 21.0391642,31.8739236 22.2003271,31.8739236 C22.9523182,31.8739236 23.6644981,32.1083724 24.2627734,32.5472694 C25.0070234,33.0961684 25.4958177,33.9184059 25.6384748,34.8595344 C25.7844496,35.8373303 25.5433701,36.8162373 24.9528358,37.6229189 L24.7980141,37.8373674 L22.9910236,40.3018574 C21.8011082,41.7052168 19.5838402,42.0485565 18.1196692,40.9663142 Z M24.5381348,47.5608808 C22.962271,46.3941925 22.6504159,44.1174837 23.8392254,42.4885646 L24.5967459,41.4552121 C24.6409807,41.3985444 24.7006976,41.3563214 24.7427207,41.2974314 L26.4402301,38.9384989 L28.9903648,35.4562122 C29.6837449,34.5117502 30.7896142,33.9472953 31.9496712,33.9472953 C32.7005565,33.9472953 33.4127363,34.1795218 34.0121175,34.6228634 C35.5857696,35.7862183 35.9020482,38.054038 34.7220856,39.6840682 L33.4116305,41.4718791 L29.5632051,46.7208652 C28.4153128,48.2820052 26.0542817,48.6820126 24.5381348,47.5608808 Z M31.4984765,53.452101 C30.740956,52.895424 30.24995,52.0587418 30.1128222,51.1009463 C29.9779061,50.1353729 30.2211974,49.1720217 30.7962495,48.3864516 L35.2916083,42.2452268 L36.3034788,40.8663123 C36.3045847,40.8640901 36.3045847,40.8618678 36.3090081,40.8585344 L38.6932624,37.6006963 C39.3866425,36.6551232 40.4925119,36.0928906 41.6558864,36.0928906 C42.4078776,36.0928906 43.1222691,36.3251171 43.7172269,36.7662364 C44.4747474,37.3262468 44.9646475,38.1595955 45.0995635,39.1151688 C45.2344796,40.0807422 44.9911883,41.0452045 44.4161363,41.8329969 L41.6503571,45.6075113 C41.6061223,45.664179 41.5497229,45.706402 41.5076999,45.7652919 L38.1867743,50.3175985 C38.1624451,50.3498213 38.1480688,50.3887109 38.1248456,50.4220449 L36.5180174,52.6176411 C35.3767603,54.1765588 33.0135175,54.5776774 31.4984765,53.452101 Z M40.4703945,56.5566029 C38.925495,55.4154707 38.6070046,53.2065409 39.7228268,51.5820663 L43.2240091,46.7997556 C43.9218127,45.9441842 44.9613299,45.4263968 46.0594581,45.4263968 C46.8081317,45.4263968 47.5192057,45.6586233 48.1141634,46.0975203 C49.6933448,47.2686531 50.0096234,49.5420286 48.8152845,51.1709476 L45.4943589,55.722143 C44.3564193,57.2821719 41.9998118,57.687735 40.4703945,56.5566029 Z M52.8130022,56.5510472 C52.2700204,57.3121724 51.4538888,57.8155151 50.5205351,57.9688513 C49.5407348,58.1199652 48.5797344,57.8966277 47.7768732,57.3143947 L47.1255162,56.8421637 L50.4055246,52.3443027 C50.6952624,51.9498509 50.9064835,51.5242875 51.0812108,51.0887239 L52.6017812,52.1831886 C53.6258162,53.4343229 53.7662616,55.2221337 52.8130022,56.5510472 Z M76.1203045,39.7985148 C74.9834708,41.395211 72.721968,41.7441064 71.0819637,40.5618623 L64.6435924,35.9484435 L62.3334314,34.2861905 L62.3301138,34.2917461 L59.5676521,32.3117095 L58.4241832,33.9261838 L63.6903331,37.699587 L68.2454089,40.98187 C69.8798838,42.1585585 70.2813143,44.4230449 69.1444807,46.0208522 C68.0021176,47.6197707 65.7428266,47.959777 64.1050341,46.7853108 L58.832249,43.0163522 L58.832249,43.0163522 L54.3291491,39.766292 L53.1779391,41.3763218 L60.812861,46.8864238 C62.4451242,48.0597789 62.8476606,50.3198207 61.7141445,51.9220726 C60.576205,53.51988 58.315808,53.8609974 56.6746979,52.6831978 L53.9642122,50.7309395 C53.6954859,50.4298228 53.3957953,50.1509287 53.0573993,49.9020352 L51.4815355,48.769792 C51.4218186,47.1297617 50.681992,45.53751 49.2819614,44.4974907 C48.219221,43.7163651 46.8999188,43.4296931 45.6071576,43.5441397 L46.0019529,43.0041297 C46.8866484,41.7985518 47.2604322,40.3185244 47.0514229,38.8396081 C46.8424136,37.3495805 46.0727286,36.0462231 44.883919,35.168429 C42.5748638,33.4628419 39.05267,34.0061853 37.2467853,36.2673383 C36.9681063,35.007315 36.2824673,33.8395155 35.1788097,33.025056 C32.8498488,31.3050242 29.2801026,31.8661457 27.490806,34.1828552 C27.2021741,32.8794978 26.4944177,31.7361433 25.4283597,30.9483509 C23.0573758,29.2038741 19.4113246,29.801663 17.6408278,32.2172633 L17.3333961,32.6472712 L14.7766262,30.6883461 L28.7028388,12.3213393 L32.29802,13.98137 L30.2676439,16.8269783 C29.3685721,18.0525565 28.9981059,19.5536954 29.2270209,21.0581677 C29.4504065,22.5215282 30.2156681,23.802663 31.3790426,24.6582344 C32.5446289,25.5226949 33.9888942,25.8793681 35.4475359,25.6582529 C36.944883,25.4315821 38.2630793,24.6337895 39.1665745,23.4037667 L42.1789626,19.2225782 L47.2051388,19.2048001 C47.8841425,23.1748736 51.6452042,26.6993833 55.4449712,26.6993833 L63.9690121,26.6993833 L75.2256562,34.7573103 C76.0174586,35.3295431 76.5449583,36.1706698 76.7130504,37.1284653 C76.8789308,38.0818163 76.6688157,39.0307228 76.1203045,39.7985148 Z M75.4965942,32.5194911 L64.6015694,24.7182355 L55.4460771,24.7182355 C52.3717603,24.7182355 49.2167151,21.4748421 49.0762697,18.1703365 L49.0331408,17.2192078 L41.1715156,17.2458749 L37.5752285,22.2348562 C36.9902236,23.0326488 36.1298573,23.5515473 35.1555864,23.6971055 C34.2167033,23.8426638 33.2955142,23.6159929 32.5490524,23.060427 C31.8081199,22.5148614 31.3226433,21.6959573 31.1777744,20.7603845 C31.0295879,19.7803663 31.2706674,18.8014593 31.8634134,17.9925554 L34.9631651,13.6458083 C36.4649357,11.4102113 39.6255103,11.2368748 40.5577581,11.2368748 L64.4732885,11.2368748 L78.7367913,30.046112 L75.4965942,32.5194911 Z" id="Shape"></path>
            </g>
        </g>
    </g>
</svg>