<?xml version="1.0" encoding="UTF-8"?>
<svg width="73px" height="73px" viewBox="0 0 73 73" version="1.1" xmlns="http://www.w3.org/2000/svg" xmlns:xlink="http://www.w3.org/1999/xlink">
    <!-- Generator: Sketch 53.2 (72643) - https://sketchapp.com -->
    <title>noun_Search_2258215</title>
    <desc>Created with Sketch.</desc>
    <g id="Page-1" stroke="none" stroke-width="1" fill="none" fill-rule="evenodd">
        <g id="Artboard" transform="translate(-932.000000, -509.000000)" fill="#000000" fill-rule="nonzero">
            <g id="noun_Search_2258215" transform="translate(932.000000, 509.000000)">
                <g id="Group">
                    <path d="M25.0673995,0.980876903 C11.4173811,0.980876903 0.317171156,12.0679026 0.317171233,25.7035432 C0.317171233,39.3392131 11.4173811,50.4277184 25.0673995,50.4277184 C31.3381367,50.4277184 37.0659219,48.0826545 41.4310992,44.2304536 L44.1636693,46.9601473 C42.477383,49.6431917 42.794752,53.2445696 45.1273952,55.5747535 L60.4397578,70.8709978 C63.147556,73.5759395 67.5746507,73.5759395 70.2824489,70.8709978 C72.9902455,68.1660554 72.9932061,63.7405915 70.2854698,61.0356498 L54.9731072,45.7394054 C53.6192061,44.3869342 51.8348414,43.7120147 50.0502508,43.7128831 C48.7624969,43.7135096 47.4767972,44.07096 46.3509339,44.7751851 L43.6183638,42.0454914 C47.4711792,37.6853023 49.8161171,31.9648644 49.8161171,25.7035432 C49.8161171,12.0679026 38.7174186,0.980876903 25.0673995,0.980876903 Z M25.0673995,4.07271913 C37.0455174,4.07271913 46.721017,13.7380554 46.721017,25.7035432 C46.721017,37.6690603 37.0455174,47.3358762 25.0673995,47.3358762 C13.0892815,47.3358762 3.41227146,37.6690603 3.41227146,25.7035432 C3.41227146,13.7380554 13.0892815,4.07271913 25.0673995,4.07271913 Z M50.0502508,46.7775643 C51.0343333,46.7766951 52.018961,47.1592598 52.7858426,47.9258765 L68.0982052,63.2221208 C69.6319667,64.7542741 69.6274764,67.1539117 68.0936731,68.6860356 C66.5599084,70.2181889 64.160784,70.2181595 62.6270224,68.6860356 L47.3161703,53.3897913 C45.7824087,51.857638 45.7824087,49.4625563 47.3161703,47.9304031 L47.3161703,47.9288942 C48.0830425,47.1628323 49.0661683,46.7784327 50.0502508,46.7775643 Z" id="Shape"></path>
                    <path d="M25.5751203,7.1631104 C23.1652054,7.0939064 20.7019416,7.50002 18.3188102,8.4292224 C17.7750081,8.60840274 17.3747718,9.07300534 17.2784665,9.63687485 C17.1821612,10.2007444 17.4055423,10.7716327 17.8591063,11.1207983 C18.3126702,11.469964 18.9222147,11.540284 19.4435096,11.3035828 C27.4185711,8.1940456 36.3640371,12.1140288 39.4768626,20.080694 C39.6777679,20.5951704 40.1381711,20.9634973 40.6846428,21.0469296 C41.2311146,21.1303618 41.7806328,20.9162241 42.1261992,20.48518 C42.4717657,20.0541358 42.5608806,19.4716712 42.3599752,18.9571948 C39.5694277,11.8153128 32.8048635,7.3704304 25.5751203,7.1631104 L25.5751203,7.1631104 Z" id="Path"></path>
                </g>
            </g>
        </g>
    </g>
</svg>