<?xml version="1.0" encoding="UTF-8"?>
<svg width="80px" height="63px" viewBox="0 0 80 63" version="1.1" xmlns="http://www.w3.org/2000/svg" xmlns:xlink="http://www.w3.org/1999/xlink">
    <!-- Generator: Sketch 53.2 (72643) - https://sketchapp.com -->
    <title>noun_Registration_605238</title>
    <desc>Created with Sketch.</desc>
    <g id="Page-1" stroke="none" stroke-width="1" fill="none" fill-rule="evenodd">
        <g id="Artboard" transform="translate(-983.000000, -498.000000)" fill="#000000" fill-rule="nonzero">
            <g id="noun_Registration_605238" transform="translate(983.000000, 498.000000)">
                <path d="M13.3571429,15 L48.6428571,15 C49.392,15 50,14.328 50,13.5 C50,12.671 49.392,12 48.6428571,12 L13.3571429,12 C12.608,12 12,12.671 12,13.5 C12,14.328 12.6070952,15 13.3571429,15 Z" id="Path"></path>
                <path d="M13.3714286,24 L42.6285714,24 C43.3856,24 44,23.328 44,22.5 C44,21.671 43.3856,21 42.6285714,21 L13.3714286,21 C12.6144,21 12,21.671 12,22.5 C12,23.328 12.6134857,24 13.3714286,24 Z" id="Path"></path>
                <path d="M27.6578947,30 L13.3421053,30 C12.6012632,30 12,30.671 12,31.5 C12,32.328 12.6012632,33 13.3421053,33 L27.6578947,33 C28.3987368,33 29,32.328 29,31.5 C29,30.671 28.3987368,30 27.6578947,30 Z" id="Path"></path>
                <path d="M79.4704525,16.9850341 L73.8812261,11.3526201 C73.7641789,11.2346494 73.6326144,11.1441138 73.4946984,11.0654667 L73.4946984,3.65800552 C73.4946984,1.64610248 71.8614829,0 69.8653306,0 L3.62936782,0 C1.63321552,0 0,1.64610248 0,3.65800552 L0,47.5540717 C0,49.5659747 1.63321552,51.2120772 3.62936782,51.2120772 L32.0790748,51.2120772 C31.7224894,51.7827261 31.4149005,52.3926985 31.2497643,52.8911018 L28.3199571,61.7498766 C28.0668087,62.5143998 28.3471774,63 28.9560038,63 C29.1066226,63 29.2781102,62.9698215 29.4668373,62.9067209 L38.2562589,59.9537959 C39.2026165,59.6355494 40.5554634,58.7932937 41.2613754,58.0827261 L48.0791429,51.2120772 L69.8662379,51.2120772 C71.8623902,51.2120772 73.4956057,49.5659747 73.4956057,47.5540717 L73.4956057,25.5941501 L79.4713598,19.571244 C80.1763645,18.8606764 80.1763645,17.6965162 79.4704525,16.9850341 Z M2.72293321,47.5540717 L2.72293321,3.65800552 C2.72293321,3.16234577 3.13849582,2.74350414 3.63027516,2.74350414 L69.8662379,2.74350414 C70.3580172,2.74350414 70.7735799,3.16234577 70.7735799,3.65800552 L70.7735799,11.8994919 L68.6685465,14.0211351 L67.5053341,12.8478299 C66.8865269,12.2241399 66.0662898,11.9113805 65.2596628,11.9132095 C64.4521285,11.912295 63.6318913,12.2250544 63.0130841,12.8496589 L52.0641887,23.8840325 C51.5324864,24.4199303 51.5324864,25.2887066 52.0641887,25.8236899 C52.5958911,26.3595877 53.4569586,26.3595877 53.988661,25.8236899 L64.9384637,14.7874873 C65.0255686,14.6996952 65.1353569,14.6567136 65.2596628,14.6557991 C65.3830613,14.6567136 65.4928497,14.6996952 65.5808618,14.7874873 L66.7440742,15.9598781 L34.4898824,48.4685731 L3.63027516,48.4685731 C3.13849582,48.4685731 2.72293321,48.0497315 2.72293321,47.5540717 Z M40.6471049,54.8216142 L36.3417673,50.4813906 L64.5900444,22.0102192 L68.8962893,26.3495282 L40.6471049,54.8216142 Z M37.3960987,57.3502105 L32.0509472,59.1462912 L33.8320595,53.7571346 C33.9436625,53.4205981 34.2095137,52.9267673 34.4935118,52.4978662 L38.6455086,56.6826245 C38.2172432,56.9697779 37.7245565,57.2404703 37.3960987,57.3502105 Z M70.7735799,47.5540717 C70.7735799,48.0497315 70.3580172,48.4685731 69.8662379,48.4685731 L50.8011687,48.4685731 L70.7735799,28.3376542 L70.7735799,47.5540717 Z M70.8207616,24.4098708 L66.5145167,20.0705618 L72.5982445,13.93883 L76.9044894,18.2781391 L70.8207616,24.4098708 Z" id="Shape"></path>
            </g>
        </g>
    </g>
</svg>