<?xml version="1.0" encoding="UTF-8"?>
<svg width="55px" height="73px" viewBox="0 0 55 73" version="1.1" xmlns="http://www.w3.org/2000/svg" xmlns:xlink="http://www.w3.org/1999/xlink">
    <!-- Generator: Sketch 53.2 (72643) - https://sketchapp.com -->
    <title>noun_Invoices_2064117</title>
    <desc>Created with Sketch.</desc>
    <g id="Page-1" stroke="none" stroke-width="1" fill="none" fill-rule="evenodd">
        <g id="Artboard" transform="translate(-1014.000000, -433.000000)" fill="#000000" fill-rule="nonzero">
            <g id="noun_Invoices_2064117" transform="translate(1014.000000, 433.000000)">
                <g id="Group">
                    <path d="M10.5416667,0 C7.67708333,0 5.38541667,2.28125 5.15625,5.01875 C2.29166667,5.1328125 0,7.528125 0,10.3796875 L0,61.59375 C0,61.59375 0,61.59375 0,61.7078125 C0,61.9359375 0.114583333,62.278125 0.34375,62.3921875 L10.65625,72.6578125 C10.8854167,72.8859375 11.1145833,73 11.4583333,73 L44.4583333,73 C47.3229167,73 49.6145833,70.71875 49.84375,67.98125 C52.7083333,67.8671875 55,65.5859375 55,62.6203125 L55,5.3609375 C55,2.3953125 52.59375,0 49.6145833,0 L10.5416667,0 Z M3.89583333,62.734375 L10.3125,62.734375 L10.3125,69.121875 L3.89583333,62.734375 Z M47.5520833,67.6390625 C47.5520833,69.35 46.1770833,70.71875 44.4583333,70.71875 L12.6041667,70.71875 L12.6041667,61.59375 C12.6041667,60.909375 12.1458333,60.453125 11.4583333,60.453125 L2.29166667,60.453125 L2.29166667,10.3796875 C2.29166667,8.66875 3.66666667,7.3 5.38541667,7.3 L44.4583333,7.3 C46.1770833,7.3 47.5520833,8.66875 47.5520833,10.3796875 L47.5520833,67.6390625 Z M52.7083333,5.3609375 L52.7083333,62.6203125 C52.7083333,64.2171875 51.4479167,65.5859375 49.84375,65.7 L49.84375,10.3796875 C49.84375,7.4140625 47.4375,5.01875 44.4583333,5.01875 L7.44791667,5.01875 C7.67708333,3.421875 8.9375,2.28125 10.5416667,2.28125 L49.6145833,2.28125 C51.3333333,2.28125 52.7083333,3.65 52.7083333,5.3609375 Z" id="Shape"></path>
                    <path d="M39.3020833,22.584375 C39.9895833,22.584375 40.4479167,22.128125 40.4479167,21.44375 C40.4479167,20.759375 39.9895833,20.303125 39.3020833,20.303125 L8.13541667,20.303125 C7.44791667,20.303125 6.98958333,20.759375 6.98958333,21.44375 C6.98958333,22.128125 7.44791667,22.584375 8.13541667,22.584375 L39.3020833,22.584375 Z" id="Path"></path>
                    <path d="M8.13541667,15.6265625 L29.5625,15.6265625 C30.25,15.6265625 30.7083333,15.1703125 30.7083333,14.4859375 C30.7083333,13.8015625 30.25,13.3453125 29.5625,13.3453125 L8.13541667,13.3453125 C7.44791667,13.3453125 6.98958333,13.8015625 6.98958333,14.4859375 C6.98958333,15.1703125 7.5625,15.6265625 8.13541667,15.6265625 Z" id="Path"></path>
                    <path d="M40.7916667,27.375 L9.05208333,27.375 C8.36458333,27.375 7.90625,27.83125 7.90625,28.515625 L7.90625,55.5484375 C7.90625,56.2328125 8.36458333,56.6890625 9.05208333,56.6890625 L40.90625,56.6890625 C41.59375,56.6890625 42.0520833,56.2328125 42.0520833,55.5484375 L42.0520833,28.515625 C41.9375,27.83125 41.4791667,27.375 40.7916667,27.375 Z M18.5625,38.4390625 L39.6458333,38.4390625 L39.6458333,45.0546875 L18.5625,45.0546875 L18.5625,38.4390625 Z M39.6458333,36.1578125 L18.5625,36.1578125 L18.5625,29.65625 L39.6458333,29.65625 L39.6458333,36.1578125 L39.6458333,36.1578125 Z M10.1979167,29.65625 L16.2708333,29.65625 L16.2708333,54.4078125 L10.1979167,54.4078125 L10.1979167,29.65625 Z M18.5625,54.4078125 L18.5625,47.221875 L39.6458333,47.221875 L39.6458333,54.4078125 L18.5625,54.4078125 Z" id="Shape"></path>
                    <path d="M40.7916667,62.1640625 L19.4791667,62.1640625 C18.7916667,62.1640625 18.3333333,62.6203125 18.3333333,63.3046875 C18.3333333,63.9890625 18.7916667,64.4453125 19.4791667,64.4453125 L40.7916667,64.4453125 C41.4791667,64.4453125 41.9375,63.9890625 41.9375,63.3046875 C41.9375,62.734375 41.4791667,62.1640625 40.7916667,62.1640625 Z" id="Path"></path>
                </g>
            </g>
        </g>
    </g>
</svg>