<?xml version="1.0" encoding="UTF-8"?>
<svg width="80px" height="80px" viewBox="0 0 80 80" version="1.1" xmlns="http://www.w3.org/2000/svg" xmlns:xlink="http://www.w3.org/1999/xlink">
    <!-- Generator: Sketch 53.2 (72643) - https://sketchapp.com -->
    <title>home icon1</title>
    <desc>Created with Sketch.</desc>
    <defs>
        <path d="M11.5,20.2941176 C6.65105882,20.2941176 2.70588235,16.3489412 2.70588235,11.5 C2.70588235,6.65105882 6.65105882,2.70588235 11.5,2.70588235 C16.3489412,2.70588235 20.2941176,6.65105882 20.2941176,11.5 C20.2941176,16.3489412 16.3489412,20.2941176 11.5,20.2941176 Z M11.5,0 C5.15876471,0 0,5.15876471 0,11.5 C0,17.8412353 5.15876471,23 11.5,23 C17.8412353,23 23,17.8412353 23,11.5 C23,5.15876471 17.8412353,0 11.5,0 Z" id="path-1"></path>
        <path d="M11.5,2.70588235 C16.3489412,2.70588235 20.2941176,6.65105882 20.2941176,11.5 C20.2941176,16.3489412 16.3489412,20.2941176 11.5,20.2941176 C6.65105882,20.2941176 2.70588235,16.3489412 2.70588235,11.5 C2.70588235,6.65105882 6.65105882,2.70588235 11.5,2.70588235 Z M11.5,23 C17.8412353,23 23,17.8412353 23,11.5 C23,5.15876471 17.8412353,0 11.5,0 C5.15876471,0 0,5.15876471 0,11.5 C0,17.8412353 5.15876471,23 11.5,23 Z" id="path-3"></path>
        <path d="M2.68965517,17.4383793 L5.71686207,16.4364828 C6.08668966,16.3141034 6.38658621,16.0357241 6.53586207,15.6766552 L7.62786207,13.0475172 C7.77310345,12.6965172 7.76368966,12.2971034 7.59962069,11.9555172 L6.26958621,9.15424138 C7.11010345,8.07972414 8.07568966,7.11413793 9.15289655,6.27093103 L11.9541724,7.60096552 C12.2984483,7.76503448 12.6965172,7.77444828 13.0461724,7.62786207 L15.6753103,6.53586207 C16.0357241,6.38658621 16.3141034,6.08803448 16.4364828,5.71686207 L17.4383793,2.68965517 L21.5616207,2.68965517 L22.5635172,5.71686207 C22.7006897,6.13106897 23.0301724,6.45248276 23.4484138,6.58024138 C24.2674138,6.83172414 25.0716207,7.16524138 25.8368276,7.57137931 C26.2120345,7.77175862 26.6598621,7.78251724 27.0458276,7.59962069 L29.8457586,6.26958621 C30.9216207,7.11144828 31.8872069,8.07703448 32.729069,9.15289655 L31.3990345,11.9528276 C31.2161379,12.3374483 31.2268966,12.7866207 31.4272759,13.1618276 C31.8361034,13.9283793 32.1696207,14.7312414 32.4184138,15.5502414 C32.5461724,15.9684828 32.8675862,16.2979655 33.2817931,16.4337931 L36.3103448,17.4383793 L36.3103448,21.5616207 L33.2831379,22.5648621 C32.868931,22.7020345 32.5475172,23.0315172 32.4197586,23.4484138 C32.1696207,24.266069 31.8361034,25.0702759 31.4272759,25.8368276 C31.2282414,26.2133793 31.2174828,26.6612069 31.3990345,27.0458276 L32.729069,29.8457586 C31.8885517,30.9216207 30.9216207,31.8872069 29.8457586,32.729069 L27.0458276,31.3990345 C26.6585172,31.2161379 26.2106897,31.2255517 25.8368276,31.4272759 C25.0716207,31.8347586 24.2674138,32.1682759 23.4484138,32.4184138 C23.0301724,32.5461724 22.7006897,32.8675862 22.5635172,33.2817931 L21.5616207,36.3103448 L17.4383793,36.3103448 L16.4364828,33.2831379 C16.2993103,32.868931 15.9698276,32.5475172 15.5515862,32.4197586 C14.7379655,32.1696207 13.9324138,31.8361034 13.1618276,31.4272759 C12.7852759,31.2255517 12.3374483,31.2161379 11.9528276,31.3990345 L9.15289655,32.729069 C8.07703448,31.8885517 7.11144828,30.9216207 6.26958621,29.8457586 L7.59962069,27.0444828 C7.76368966,26.6988621 7.77310345,26.3021379 7.62651724,25.9524828 L6.53586207,23.3246897 C6.38658621,22.9642759 6.08803448,22.6858966 5.71686207,22.5648621 L2.68965517,21.5616207 L2.68965517,17.4383793 Z M0.922551724,23.8088276 L4.28731034,24.9236897 L4.914,26.4325862 L3.49251724,29.4248276 C3.28406897,29.865931 3.32844828,30.3836897 3.61086207,30.7817586 C4.88172414,32.5690345 6.43231034,34.1182759 8.21824138,35.3904828 C8.61496552,35.6728966 9.13272414,35.715931 9.57517241,35.5088276 L12.510931,34.1142414 C13.0300345,34.3630345 13.5585517,34.5835862 14.0951379,34.7732069 L15.1898276,38.0801379 C15.3727241,38.6288276 15.8864483,39 16.4674138,39 L22.533931,39 C23.1135517,39 23.6286207,38.6288276 23.8101724,38.0774483 L24.9048621,34.7705172 C25.4427931,34.5782069 25.9713103,34.3576552 26.489069,34.1115517 L29.4248276,35.5061379 C29.8672759,35.7145862 30.3836897,35.6702069 30.7817586,35.3877931 C32.5690345,34.116931 34.1182759,32.565 35.3891379,30.779069 C35.6715517,30.3823448 35.7172759,29.8632414 35.5074828,29.4221379 L34.1128966,26.4863793 C34.3616897,25.9672759 34.5822414,25.4401034 34.7718621,24.9008276 L38.0787931,23.8074828 C38.6288276,23.6272759 39,23.1122069 39,22.5325862 L39,16.4674138 C39,15.8877931 38.6288276,15.3727241 38.0774483,15.1911724 L34.7705172,14.0978276 C34.5795517,13.5612414 34.3603448,13.0313793 34.1115517,12.5122759 L35.5061379,9.57651724 C35.7145862,9.13541379 35.6702069,8.61765517 35.3877931,8.21958621 C34.116931,6.43231034 32.5663448,4.88306897 30.7804138,3.61086207 C30.3823448,3.32710345 29.8645862,3.28406897 29.4234828,3.49251724 L26.4877241,4.88710345 C25.9713103,4.63965517 25.4414483,4.41910345 24.9035172,4.22813793 L23.8088276,0.921206897 C23.6272759,0.371172414 23.1135517,0 22.5325862,0 L16.466069,0 C15.8864483,0 15.3713793,0.371172414 15.1898276,0.922551724 L14.0749655,4.29 L12.566069,4.91534483 L9.57382759,3.49251724 C9.13406897,3.28541379 8.61496552,3.32844828 8.21689655,3.61086207 C6.42827586,4.88306897 4.87903448,6.43365517 3.60951724,8.21958621 C3.32710345,8.61631034 3.28137931,9.13541379 3.49117241,9.57517241 L4.91131034,12.5674138 L4.28462069,14.0763103 L0.919862069,15.1911724 C0.371172414,15.3727241 0,15.8864483 0,16.4674138 L0,22.5325862 C0,23.1122069 0.371172414,23.6272759 0.922551724,23.8088276 Z" id="path-5"></path>
        <path d="M36.3103448,21.5616207 L33.2831379,22.5648621 C32.868931,22.7020345 32.5475172,23.0315172 32.4197586,23.4484138 C32.1682759,24.266069 31.8347586,25.0702759 31.4272759,25.8368276 C31.2282414,26.2133793 31.2174828,26.6612069 31.3990345,27.0458276 L32.729069,29.8457586 C31.8885517,30.9216207 30.9216207,31.8872069 29.8457586,32.729069 L27.0458276,31.3990345 C26.6585172,31.2161379 26.2106897,31.2255517 25.8368276,31.4272759 C25.0716207,31.8347586 24.2674138,32.1682759 23.4484138,32.4184138 C23.0301724,32.5461724 22.7006897,32.8675862 22.5648621,33.2817931 L21.5616207,36.3103448 L17.4383793,36.3103448 L16.4364828,33.2831379 C16.2993103,32.868931 15.9698276,32.5475172 15.552931,32.4197586 C14.7393103,32.1696207 13.9337586,31.8361034 13.1631724,31.4272759 C12.7866207,31.2255517 12.3401379,31.2161379 11.9541724,31.3990345 L9.15424138,32.729069 C8.07837931,31.8885517 7.1127931,30.9216207 6.27093103,29.8457586 L7.60096552,27.0444828 C7.76503448,26.6988621 7.77444828,26.3021379 7.62786207,25.9524828 L6.53586207,23.3233448 C6.38658621,22.962931 6.08803448,22.6845517 5.71686207,22.5635172 L2.68965517,21.5616207 L2.68965517,17.4383793 L5.71686207,16.4364828 C6.08668966,16.3141034 6.38658621,16.0357241 6.53586207,15.6766552 L7.62786207,13.0475172 C7.77310345,12.6965172 7.76503448,12.2971034 7.59962069,11.9555172 L6.26958621,9.15424138 C7.11010345,8.07972414 8.07568966,7.11413793 9.15289655,6.27093103 L11.9541724,7.60096552 C12.2984483,7.76503448 12.6978621,7.77444828 13.0461724,7.62786207 L15.6753103,6.53586207 C16.0357241,6.38658621 16.3141034,6.08803448 16.4351379,5.71686207 L17.4383793,2.68965517 L21.5616207,2.68965517 L22.5635172,5.71686207 C22.7006897,6.13106897 23.0301724,6.45248276 23.447069,6.58024138 C24.266069,6.83172414 25.0702759,7.16524138 25.8354828,7.57137931 C26.2093448,7.77175862 26.6585172,7.78251724 27.0444828,7.59962069 L29.8444138,6.26958621 C30.9202759,7.11144828 31.8858621,8.07703448 32.7277241,9.15289655 L31.3976897,11.9528276 C31.2147931,12.3374483 31.2255517,12.7866207 31.425931,13.1618276 C31.8347586,13.9283793 32.1682759,14.7312414 32.417069,15.5502414 C32.5448276,15.9684828 32.8662414,16.2979655 33.2804483,16.4337931 L36.3103448,17.4383793 L36.3103448,21.5616207 Z M38.0774483,15.1898276 L34.7705172,14.0964828 C34.5782069,13.5598966 34.359,13.0300345 34.1115517,12.510931 L35.5061379,9.57517241 C35.7132414,9.13406897 35.6702069,8.61631034 35.3877931,8.21824138 C34.116931,6.43096552 32.565,4.88172414 30.779069,3.60951724 C30.3796552,3.32575862 29.8618966,3.28272414 29.4221379,3.49117241 L26.4863793,4.88575862 C25.9686207,4.63831034 25.4401034,4.41775862 24.9008276,4.2267931 L23.8074828,0.919862069 C23.6272759,0.371172414 23.1135517,0 22.5325862,0 L16.466069,0 C15.8864483,0 15.3713793,0.371172414 15.1898276,0.922551724 L14.0749655,4.29 L12.566069,4.91534483 L9.57382759,3.49251724 C9.13272414,3.28541379 8.61496552,3.32844828 8.21689655,3.61086207 C6.42827586,4.88306897 4.87903448,6.43365517 3.60817241,8.21958621 C3.32575862,8.61631034 3.28137931,9.13541379 3.48982759,9.57517241 L4.91131034,12.5674138 L4.28327586,14.0763103 L0.918517241,15.1911724 C0.371172414,15.3727241 0,15.8864483 0,16.4674138 L0,22.5325862 C0,23.1122069 0.371172414,23.6272759 0.922551724,23.8088276 L4.28865517,24.9236897 L4.91534483,26.4325862 L3.49251724,29.4248276 C3.28541379,29.865931 3.32844828,30.3836897 3.61086207,30.7817586 C4.88172414,32.5690345 6.43365517,34.1182759 8.21958621,35.3904828 C8.61631034,35.6728966 9.13541379,35.715931 9.57651724,35.5088276 L12.5122759,34.1142414 C13.0327241,34.3630345 13.5598966,34.5835862 14.0978276,34.7732069 L15.1911724,38.0801379 C15.3727241,38.6288276 15.8864483,39 16.4674138,39 L22.533931,39 C23.1135517,39 23.6286207,38.6288276 23.8101724,38.0774483 L24.9035172,34.7705172 C25.4414483,34.5782069 25.9699655,34.3576552 26.489069,34.1115517 L29.4248276,35.5061379 C29.865931,35.7145862 30.3836897,35.6702069 30.7817586,35.3877931 C32.5690345,34.116931 34.1182759,32.565 35.3904828,30.779069 C35.6728966,30.3823448 35.7172759,29.8632414 35.5088276,29.4221379 L34.1142414,26.4863793 C34.3630345,25.9672759 34.5835862,25.4401034 34.7732069,24.9008276 L38.0801379,23.8074828 C38.6288276,23.6272759 39,23.1122069 39,22.5325862 L39,16.4674138 C39,15.8864483 38.6288276,15.3727241 38.0774483,15.1898276 Z" id="path-7"></path>
        <path d="M13.5,3.60045 C18.95805,3.60045 23.39955,8.04195 23.39955,13.5 C23.39955,16.34985 22.18185,18.9135 20.25,20.72115 L20.25,16.21485 C20.25,14.65695 19.3698,13.30155 18.0792,12.61845 C18.2871,11.8017 18.27225,10.93095 18.0198,10.0872 C17.55135,8.51175 16.27425,7.28865 14.688,6.8958 C13.2354,6.5367 11.745,6.84855 10.5894,7.7517 C9.4365,8.65485 8.775,10.0116 8.775,11.475 C8.775,11.86515 8.8236,12.24855 8.9181,12.62115 C7.6302,13.3029 6.75,14.6583 6.75,16.21485 L6.75,20.72115 C4.8168,18.9135 3.60045,16.3485 3.60045,13.5 C3.60045,8.04195 8.04195,3.60045 13.5,3.60045 Z M17.55,22.52475 C16.31205,23.0823 14.94315,23.4009 13.5,23.4009 C12.05685,23.4009 10.68795,23.08365 9.45,22.52475 L9.45,16.2162 C9.45,15.4629 10.0629,14.85 10.81485,14.85 C11.3265,14.85 11.79495,14.55975 12.0231,14.1021 C12.25125,13.6431 12.2013,13.095 11.89215,12.6873 C11.7018,12.4335 11.475,12.01905 11.475,11.475 C11.475,10.84725 11.7585,10.2654 12.25395,9.87795 C12.7575,9.48375 13.39065,9.3555 14.0373,9.51615 C14.6799,9.67545 15.24015,10.2141 15.42915,10.8567 C15.67755,11.6856 15.39135,12.3093 15.1065,12.6846 C14.79735,13.09365 14.7447,13.6404 14.9742,14.0994 C15.20505,14.55975 15.67215,14.85 16.18515,14.85 C16.9371,14.85 17.55,15.4629 17.55,16.21485 L17.55,22.52475 Z M13.5,26.09955 C20.4471,26.09955 26.09955,20.4471 26.09955,13.5 C26.09955,6.5529 20.4471,0.90045 13.5,0.90045 C6.5529,0.90045 0.90045,6.5529 0.90045,13.5 C0.90045,20.4471 6.5529,26.09955 13.5,26.09955 Z" id="path-9"></path>
        <path d="M2.6875,19.10275 L6.15034375,17.9565312 C6.519875,17.83425 6.81953125,17.5560937 6.9686875,17.1959687 L8.18075,14.2773437 C8.32721875,13.926625 8.3178125,13.528875 8.153875,13.1862187 L6.638125,9.9948125 C7.61234375,8.7370625 8.7370625,7.61234375 9.9948125,6.638125 L13.1875625,8.153875 C13.5302187,8.31646875 13.926625,8.325875 14.2786875,8.18209375 L17.1973125,6.971375 C17.5574375,6.82221875 17.8355938,6.5225625 17.957875,6.15303125 L19.10275,2.6875 L23.8959062,2.6875 L25.042125,6.15034375 C25.1805312,6.56421875 25.50975,6.885375 25.9249687,7.01303125 C26.8440937,7.29253125 27.74575,7.6674375 28.6044062,8.12565625 C28.9779687,8.325875 29.4267812,8.336625 29.8110937,8.153875 L33.0025,6.638125 C34.2615937,7.61234375 35.383625,8.7370625 36.3591875,9.9948125 L34.8434375,13.1862188 C34.6606875,13.5705312 34.6714375,14.0193437 34.8716563,14.39425 C35.3285312,15.2529062 35.7034375,16.1545625 35.9842812,17.0736875 C36.1119375,17.49025 36.4330937,17.8194687 36.8469688,17.9565312 L40.3125,19.10275 L40.3125,23.8959062 L36.8496562,25.042125 C36.4357812,25.1791875 36.114625,25.5084063 35.9869687,25.9249687 C35.7074687,26.8440937 35.3325625,27.74575 34.8743437,28.6044063 C34.674125,28.9793125 34.663375,29.428125 34.846125,29.8124375 L36.361875,33.0038438 C35.3876562,34.2615938 34.2629375,35.3849687 33.0051875,36.3605313 L29.8137812,34.8447813 C29.428125,34.6620312 28.9793125,34.6727812 28.6070937,34.873 C27.7484375,35.329875 26.8454375,35.7047812 25.9276562,35.985625 C25.5110937,36.1132812 25.181875,36.4344375 25.0448125,36.8483125 L23.89725,40.3125 L19.1040937,40.3125 L17.957875,36.8496562 C17.8355937,36.480125 17.5574375,36.1804687 17.1973125,36.0313125 L14.2786875,34.81925 C13.9279687,34.6727812 13.5315625,34.6821875 13.1875625,34.846125 L9.99615625,36.361875 C8.73840625,35.3876562 7.61503125,34.2629375 6.63946875,33.0051875 L8.15521875,29.8137812 C8.31915625,29.4697812 8.3285625,29.073375 8.18209375,28.7226562 L6.97003125,25.8040312 C6.820875,25.4439062 6.5225625,25.16575 6.1516875,25.0434687 L2.6875,23.89725 L2.6875,19.10275 Z M0.9218125,26.1426562 L4.72328125,27.40175 L5.47040625,29.2010312 L3.864625,32.5819062 C3.65634375,33.0226562 3.7006875,33.54 3.982875,33.93775 C5.3830625,35.9076875 7.0923125,37.6169375 9.06225,39.0184687 C9.45865625,39.3006562 9.976,39.345 10.4180937,39.1367187 L13.8003125,37.5309375 L15.5995937,38.2780625 L16.8586875,42.080875 C17.03875,42.629125 17.5534062,43 18.1325625,43 L24.8674375,43 C25.4465937,43 25.96125,42.629125 26.1426562,42.0781875 L27.3815937,38.3358437 C28.0185312,38.1127812 28.6460625,37.8520937 29.2574687,37.555125 L32.5819062,39.1340312 C33.024,39.3436562 33.54,39.2993125 33.93775,39.0157812 C35.9076875,37.6155937 37.6169375,35.9063437 39.0184687,33.9364062 C39.3006562,33.54 39.3463437,33.0213125 39.1367187,32.5805625 L37.5578125,29.2547812 C37.8534375,28.643375 38.1154687,28.0158437 38.3385312,27.3789062 L42.0795312,26.1399687 C42.629125,25.96125 43,25.4465937 43,24.8674375 L43,18.1325625 C43,17.5534062 42.629125,17.03875 42.0781875,16.8573437 L38.3371875,15.6184062 C38.114125,14.9814687 37.8534375,14.3539375 37.5564687,13.7425312 L39.135375,10.4180937 C39.3436562,9.97734375 39.2993125,9.46 39.017125,9.06225 C37.6169375,7.0923125 35.9076875,5.3830625 33.93775,3.98153125 C33.54,3.69934375 33.0213125,3.65365625 32.5819062,3.86328125 L29.2574687,5.4421875 C28.6460625,5.1465625 28.0171875,4.88453125 27.3815937,4.66146875 L26.1426562,0.92046875 C25.96125,0.370875 25.4465937,0 24.8674375,0 L18.1325625,0 C17.5534062,0 17.03875,0.370875 16.8573437,0.9218125 L15.59825,4.72328125 L13.8003125,5.4690625 L10.4180937,3.86328125 C9.9786875,3.655 9.46134375,3.7006875 9.06359375,3.98153125 C7.09365625,5.38171875 5.38440625,7.09096875 3.982875,9.06090625 C3.7006875,9.4573125 3.655,9.976 3.864625,10.41675 L5.47040625,13.7989687 L4.72328125,15.59825 L0.9218125,16.8573437 C0.370875,17.03875 0,17.5534062 0,18.1325625 L0,24.8674375 C0,25.4465937 0.370875,25.96125 0.9218125,26.1426562 Z" id="path-11"></path>
        <path d="M3.53571429,7.33333333 L5.46428571,7.33333333 C5.99657143,7.33333333 6.42857143,7.78133333 6.42857143,8.33333333 C6.42857143,8.88533333 5.99657143,9.33333333 5.46428571,9.33333333 L1.28571429,9.33333333 L1.28571429,12 L5.46428571,12 C7.41471429,12 9,10.356 9,8.33333333 C9,6.31066667 7.41471429,4.66666667 5.46428571,4.66666667 L3.53571429,4.66666667 C3.00342857,4.66666667 2.57142857,4.21866667 2.57142857,3.66666667 C2.57142857,3.11466667 3.00342857,2.66666667 3.53571429,2.66666667 L7.71428571,2.66666667 L7.71428571,0 L3.53571429,0 C1.58528571,0 0,1.644 0,3.66666667 C0,5.68933333 1.58528571,7.33333333 3.53571429,7.33333333 Z" id="path-13"></path>
        <path d="M2.8,0 L0,0 L0,6.66666667 C0,7.40266667 0.6272,8 1.4,8 L7,8 L7,5.33333333 L2.8,5.33333333 L2.8,0 Z" id="path-15"></path>
        <rect id="path-17" x="0" y="0" width="3" height="3"></rect>
        <rect id="path-19" x="0" y="0" width="3" height="3"></rect>
        <rect id="path-21" x="0" y="0" width="3" height="3"></rect>
        <rect id="path-23" x="0" y="0" width="3" height="3"></rect>
        <rect id="path-25" x="0" y="0" width="3" height="3"></rect>
        <rect id="path-27" x="0" y="0" width="3" height="3"></rect>
        <rect id="path-29" x="0" y="0" width="3" height="3"></rect>
        <rect id="path-31" x="0" y="0" width="3" height="3"></rect>
        <rect id="path-33" x="0" y="0" width="3" height="3"></rect>
        <rect id="path-35" x="0" y="0" width="3" height="3"></rect>
        <rect id="path-37" x="0" y="0" width="3" height="3"></rect>
        <rect id="path-39" x="0" y="0" width="3" height="3"></rect>
        <rect id="path-41" x="0" y="0" width="3" height="3"></rect>
    </defs>
    <g id="Page-1" stroke="none" stroke-width="1" fill="none" fill-rule="evenodd">
        <g id="Artboard" transform="translate(-1095.000000, -281.000000)">
            <g id="home-icon1" transform="translate(1095.000000, 281.000000)">
                <g id="Clipped" transform="translate(49.000000, 49.000000)">
                    <mask id="mask-2" fill="white">
                        <use xlink:href="#path-1"></use>
                    </mask>
                    <g id="SVGID_1_"></g>
                    <rect id="Rectangle" fill="#000000" fill-rule="nonzero" mask="url(#mask-2)" x="-6.76470588" y="-6.76470588" width="36.5294118" height="36.5294118"></rect>
                </g>
                <g id="Clipped" transform="translate(8.000000, 49.000000)">
                    <mask id="mask-4" fill="white">
                        <use xlink:href="#path-3"></use>
                    </mask>
                    <g id="SVGID_3_"></g>
                    <rect id="Rectangle" fill="#000000" fill-rule="nonzero" mask="url(#mask-4)" x="-6.76470588" y="-6.76470588" width="36.5294118" height="36.5294118"></rect>
                </g>
                <g id="Clipped" transform="translate(0.000000, 41.000000)">
                    <mask id="mask-6" fill="white">
                        <use xlink:href="#path-5"></use>
                    </mask>
                    <g id="SVGID_5_"></g>
                    <rect id="Rectangle" fill="#000000" fill-rule="nonzero" mask="url(#mask-6)" x="-6.72413793" y="-6.72413793" width="52.4482759" height="52.4482759"></rect>
                </g>
                <g id="Clipped" transform="translate(41.000000, 41.000000)">
                    <mask id="mask-8" fill="white">
                        <use xlink:href="#path-7"></use>
                    </mask>
                    <g id="SVGID_7_"></g>
                    <rect id="Rectangle" fill="#000000" fill-rule="nonzero" mask="url(#mask-8)" x="-6.72413793" y="-6.72413793" width="52.4482759" height="52.4482759"></rect>
                </g>
                <g id="Clipped" transform="translate(27.000000, 8.000000)">
                    <mask id="mask-10" fill="white">
                        <use xlink:href="#path-9"></use>
                    </mask>
                    <g id="SVGID_9_"></g>
                    <rect id="Rectangle" fill="#000000" fill-rule="nonzero" mask="url(#mask-10)" x="-5.84955" y="-5.84955" width="38.6991" height="38.6991"></rect>
                </g>
                <g id="Clipped" transform="translate(19.000000, 0.000000)">
                    <mask id="mask-12" fill="white">
                        <use xlink:href="#path-11"></use>
                    </mask>
                    <g id="SVGID_11_"></g>
                    <rect id="Rectangle" fill="#000000" fill-rule="nonzero" mask="url(#mask-12)" x="-6.71875" y="-6.71875" width="56.4375" height="56.4375"></rect>
                </g>
                <g id="Clipped" transform="translate(15.000000, 55.000000)">
                    <mask id="mask-14" fill="white">
                        <use xlink:href="#path-13"></use>
                    </mask>
                    <g id="SVGID_13_"></g>
                    <rect id="Rectangle" fill="#000000" fill-rule="nonzero" mask="url(#mask-14)" x="-6.42857143" y="-6.66666667" width="21.8571429" height="25.3333333"></rect>
                </g>
                <g id="Clipped" transform="translate(59.000000, 55.000000)">
                    <mask id="mask-16" fill="white">
                        <use xlink:href="#path-15"></use>
                    </mask>
                    <g id="SVGID_15_"></g>
                    <rect id="Rectangle" fill="#000000" fill-rule="nonzero" mask="url(#mask-16)" x="-7" y="-6.66666667" width="21" height="21.3333333"></rect>
                </g>
                <g id="Clipped" transform="translate(64.000000, 20.000000)">
                    <mask id="mask-18" fill="white">
                        <use xlink:href="#path-17"></use>
                    </mask>
                    <g id="SVGID_17_"></g>
                    <rect id="Rectangle" fill="#000000" fill-rule="nonzero" mask="url(#mask-18)" x="-7.5" y="-7.5" width="18" height="18"></rect>
                </g>
                <g id="Clipped" transform="translate(69.000000, 20.000000)">
                    <mask id="mask-20" fill="white">
                        <use xlink:href="#path-19"></use>
                    </mask>
                    <g id="SVGID_19_"></g>
                    <rect id="Rectangle" fill="#000000" fill-rule="nonzero" mask="url(#mask-20)" x="-7.5" y="-7.5" width="18" height="18"></rect>
                </g>
                <g id="Clipped" transform="translate(69.000000, 25.000000)">
                    <mask id="mask-22" fill="white">
                        <use xlink:href="#path-21"></use>
                    </mask>
                    <g id="SVGID_21_"></g>
                    <rect id="Rectangle" fill="#000000" fill-rule="nonzero" mask="url(#mask-22)" x="-7.5" y="-7.5" width="18" height="18"></rect>
                </g>
                <g id="Clipped" transform="translate(69.000000, 31.000000)">
                    <mask id="mask-24" fill="white">
                        <use xlink:href="#path-23"></use>
                    </mask>
                    <g id="SVGID_23_"></g>
                    <rect id="Rectangle" fill="#000000" fill-rule="nonzero" mask="url(#mask-24)" x="-7.5" y="-7.5" width="18" height="18"></rect>
                </g>
                <g id="Clipped" transform="translate(69.000000, 36.000000)">
                    <mask id="mask-26" fill="white">
                        <use xlink:href="#path-25"></use>
                    </mask>
                    <g id="SVGID_25_"></g>
                    <rect id="Rectangle" fill="#000000" fill-rule="nonzero" mask="url(#mask-26)" x="-7.5" y="-7.5" width="18" height="18"></rect>
                </g>
                <g id="Clipped" transform="translate(13.000000, 20.000000)">
                    <mask id="mask-28" fill="white">
                        <use xlink:href="#path-27"></use>
                    </mask>
                    <g id="SVGID_27_"></g>
                    <rect id="Rectangle" fill="#000000" fill-rule="nonzero" mask="url(#mask-28)" x="-7.5" y="-7.5" width="18" height="18"></rect>
                </g>
                <g id="Clipped" transform="translate(8.000000, 20.000000)">
                    <mask id="mask-30" fill="white">
                        <use xlink:href="#path-29"></use>
                    </mask>
                    <g id="SVGID_29_"></g>
                    <rect id="Rectangle" fill="#000000" fill-rule="nonzero" mask="url(#mask-30)" x="-7.5" y="-7.5" width="18" height="18"></rect>
                </g>
                <g id="Clipped" transform="translate(8.000000, 25.000000)">
                    <mask id="mask-32" fill="white">
                        <use xlink:href="#path-31"></use>
                    </mask>
                    <g id="SVGID_31_"></g>
                    <rect id="Rectangle" fill="#000000" fill-rule="nonzero" mask="url(#mask-32)" x="-7.5" y="-7.5" width="18" height="18"></rect>
                </g>
                <g id="Clipped" transform="translate(8.000000, 31.000000)">
                    <mask id="mask-34" fill="white">
                        <use xlink:href="#path-33"></use>
                    </mask>
                    <g id="SVGID_33_"></g>
                    <rect id="Rectangle" fill="#000000" fill-rule="nonzero" mask="url(#mask-34)" x="-7.5" y="-7.5" width="18" height="18"></rect>
                </g>
                <g id="Clipped" transform="translate(8.000000, 36.000000)">
                    <mask id="mask-36" fill="white">
                        <use xlink:href="#path-35"></use>
                    </mask>
                    <g id="SVGID_35_"></g>
                    <rect id="Rectangle" fill="#000000" fill-rule="nonzero" mask="url(#mask-36)" x="-7.5" y="-7.5" width="18" height="18"></rect>
                </g>
                <g id="Clipped" transform="translate(39.000000, 77.000000)">
                    <mask id="mask-38" fill="white">
                        <use xlink:href="#path-37"></use>
                    </mask>
                    <g id="SVGID_37_"></g>
                    <rect id="Rectangle" fill="#000000" fill-rule="nonzero" mask="url(#mask-38)" x="-7.5" y="-7.5" width="18" height="18"></rect>
                </g>
                <g id="Clipped" transform="translate(33.000000, 77.000000)">
                    <mask id="mask-40" fill="white">
                        <use xlink:href="#path-39"></use>
                    </mask>
                    <g id="SVGID_39_"></g>
                    <rect id="Rectangle" fill="#000000" fill-rule="nonzero" mask="url(#mask-40)" x="-7.5" y="-7.5" width="18" height="18"></rect>
                </g>
                <g id="Clipped" transform="translate(44.000000, 77.000000)">
                    <mask id="mask-42" fill="white">
                        <use xlink:href="#path-41"></use>
                    </mask>
                    <g id="SVGID_41_"></g>
                    <rect id="Rectangle" fill="#000000" fill-rule="nonzero" mask="url(#mask-42)" x="-7.5" y="-7.5" width="18" height="18"></rect>
                </g>
            </g>
        </g>
    </g>
</svg>