<svg width="22" height="23" viewBox="0 0 22 23" fill="none" xmlns="http://www.w3.org/2000/svg">
    <path d="M20.0833 1.75531H17.6662V1.32377C17.6662 0.593939 17.083 0 16.366 0H4.9676C4.25063 0 3.66747 0.593939 3.66747 1.32377V1.75531H1.25C0.5607 1.75531 0 2.32638 0 3.02804C0 6.23565 0 14.7501 0 17.9826C0 18.6842 0.5607 19.2553 1.25 19.2553H7.81383C7.51537 20.2501 6.91113 20.9385 5.83787 21.8922H4.81703C4.679 21.8922 4.56703 22.0062 4.56703 22.1468C4.56703 22.2873 4.679 22.4013 4.81703 22.4013H16.5164C16.6544 22.4013 16.7664 22.2873 16.7664 22.1468C16.7664 22.0062 16.6544 21.8922 16.5164 21.8922H15.4955C14.4223 20.9388 13.8181 20.2501 13.5196 19.2553H20.0833C20.7726 19.2553 21.3333 18.6842 21.3333 17.9826C21.3333 14.75 21.3333 6.23541 21.3333 3.02804C21.3333 2.32638 20.7726 1.75531 20.0833 1.75531ZM4.16747 13.9539V3.62198H17.1662V13.9539H4.16747ZM3.66747 13.9669H1.83347V3.62198H3.66747V13.9669ZM17.6662 3.62198H19.5002V13.9669H17.6662V3.62198ZM4.9676 0.509091H16.366C16.8073 0.509091 17.1662 0.874652 17.1662 1.32377V2.94054H4.16747V1.32377C4.16747 0.874686 4.52637 0.509091 4.9676 0.509091ZM1.25 2.2644H3.66747V3.11289H1.58347C1.44543 3.11289 1.33347 3.22689 1.33347 3.36743V14.2214C1.33347 14.362 1.44543 14.476 1.58347 14.476H19.7501C19.8882 14.476 20.0001 14.362 20.0001 14.2214V3.36743C20.0001 3.22689 19.8882 3.11289 19.7501 3.11289H17.6661V2.2644H20.0833C20.4969 2.2644 20.8333 2.60712 20.8333 3.02804V15.3231H0.5V3.02804C0.5 2.60712 0.836433 2.2644 1.25 2.2644ZM14.7441 21.8916H6.58937C7.50997 21.0255 8.06307 20.2945 8.33857 19.2553H12.9949C13.2703 20.2945 13.8234 21.0255 14.7441 21.8916ZM20.0833 18.7462H13.1958C13.1938 18.7462 13.1921 18.7452 13.1901 18.7452H8.1434C8.14143 18.7452 8.1397 18.7462 8.13773 18.7462H1.25C0.836433 18.7462 0.5 18.4035 0.5 17.9826V15.8332H20.8333V17.9826C20.8333 18.4035 20.4969 18.7462 20.0833 18.7462Z" fill="black"/>
    <path d="M10.6665 16.416C10.1935 16.416 9.80859 16.8081 9.80859 17.2897C9.80859 17.7712 10.1935 18.163 10.6665 18.163C11.1395 18.163 11.5244 17.7713 11.5244 17.2897C11.5244 16.8082 11.1395 16.416 10.6665 16.416ZM10.6665 17.654C10.4691 17.654 10.3086 17.4906 10.3086 17.2897C10.3086 17.0885 10.4691 16.9251 10.6665 16.9251C10.8639 16.9251 11.0244 17.0885 11.0244 17.2897C11.0244 17.4906 10.8639 17.654 10.6665 17.654Z" fill="black"/>
    <path d="M12.3542 2.35177C12.6934 2.35177 12.9692 2.07106 12.9692 1.72569C12.9692 1.38032 12.6934 1.09961 12.3542 1.09961C12.0151 1.09961 11.7393 1.38032 11.7393 1.72569C11.7393 2.07106 12.0151 2.35177 12.3542 2.35177ZM12.3542 1.36407C12.55 1.36407 12.7091 1.52647 12.7091 1.72566C12.7091 1.92485 12.55 2.08725 12.3542 2.08725C12.1585 2.08725 11.9993 1.92485 11.9993 1.72566C11.9993 1.52647 12.1585 1.36407 12.3542 1.36407Z" fill="black"/>
    <path d="M13.9735 2.35177C14.3127 2.35177 14.5885 2.07106 14.5885 1.72569C14.5885 1.38032 14.3127 1.09961 13.9735 1.09961C13.6343 1.09961 13.3584 1.38032 13.3584 1.72569C13.3584 2.07106 13.6343 2.35177 13.9735 2.35177ZM13.9735 1.36407C14.1693 1.36407 14.3284 1.52647 14.3284 1.72566C14.3284 1.92485 14.1693 2.08725 13.9735 2.08725C13.7777 2.08725 13.6185 1.92485 13.6185 1.72566C13.6185 1.52647 13.7777 1.36407 13.9735 1.36407Z" fill="black"/>
    <path d="M15.5926 2.35177C15.9318 2.35177 16.2077 2.07106 16.2077 1.72569C16.2077 1.38032 15.9318 1.09961 15.5926 1.09961C15.2534 1.09961 14.9775 1.38032 14.9775 1.72569C14.9775 2.07106 15.2534 2.35177 15.5926 2.35177ZM15.5926 1.36407C15.7884 1.36407 15.9476 1.52647 15.9476 1.72566C15.9476 1.92485 15.7884 2.08725 15.5926 2.08725C15.3968 2.08725 15.2376 1.92485 15.2376 1.72566C15.2376 1.52647 15.3968 1.36407 15.5926 1.36407Z" fill="black"/>
    <path d="M5.98667 9.04052V7.79301H9.2287V9.04056C9.2287 9.1138 9.28697 9.17279 9.35874 9.17279H10.057C10.1287 9.17279 10.187 9.1138 10.187 9.04056C10.187 9.00621 10.1867 7.22236 10.1867 7.29088C10.1867 6.65652 9.67967 6.14047 9.05664 6.14047H6.39064V5.27939C6.39064 4.75374 5.97054 4.32617 5.45427 4.32617H5.15837C5.0866 4.32617 5.02834 4.38516 5.02834 4.4584C5.02834 4.94971 5.0283 9.09014 5.02834 9.04056C5.02834 9.1138 5.0866 9.17279 5.15837 9.17279H5.8566C5.9284 9.17279 5.98667 9.1138 5.98667 9.04052ZM9.48877 8.9083V7.79301H9.92694V8.9083H9.48877ZM9.9266 7.29088V7.52818C9.96014 7.52818 8.7146 7.52846 5.28987 7.52818V6.40493C6.18057 6.40493 8.1459 6.40493 9.05664 6.40493C9.5363 6.40493 9.9266 6.80232 9.9266 7.29088ZM5.2884 4.59063H5.45427C5.82717 4.59063 6.13054 4.89954 6.13054 5.27936V6.14044H5.2884V4.59063ZM5.2884 8.9083V7.79301H5.72657V8.9083H5.2884Z" fill="black"/>
    <path d="M16.0158 12.6504H5.31753C5.24577 12.6504 5.1875 12.7094 5.1875 12.7826C5.1875 12.8559 5.24577 12.9148 5.31753 12.9148H16.0158C16.0875 12.9148 16.1458 12.8559 16.1458 12.7826C16.1458 12.7094 16.0876 12.6504 16.0158 12.6504Z" fill="black"/>
    <path d="M16.0158 11.2363H5.31753C5.24577 11.2363 5.1875 11.2953 5.1875 11.3686C5.1875 11.4418 5.24577 11.5008 5.31753 11.5008H16.0158C16.0875 11.5008 16.1458 11.4418 16.1458 11.3686C16.1458 11.2953 16.0876 11.2363 16.0158 11.2363Z" fill="black"/>
    <path d="M16.0158 9.82031H5.31753C5.24577 9.82031 5.1875 9.8793 5.1875 9.95254C5.1875 10.0258 5.24577 10.0848 5.31753 10.0848H16.0158C16.0875 10.0848 16.1458 10.0258 16.1458 9.95254C16.1458 9.8793 16.0876 9.82031 16.0158 9.82031Z" fill="black"/>
    <path d="M16.0161 8.27734H12.0636C11.9919 8.27734 11.9336 8.33633 11.9336 8.40957C11.9336 8.48281 11.9919 8.5418 12.0636 8.5418H16.0161C16.0879 8.5418 16.1461 8.48281 16.1461 8.40957C16.1461 8.33633 16.0879 8.27734 16.0161 8.27734Z" fill="black"/>
    <path d="M16.0161 6.61719H12.0636C11.9919 6.61719 11.9336 6.67617 11.9336 6.74942C11.9336 6.82266 11.9919 6.88164 12.0636 6.88164H16.0161C16.0879 6.88164 16.1461 6.82266 16.1461 6.74942C16.1461 6.67617 16.0879 6.61719 16.0161 6.61719Z" fill="black"/>
    <path d="M16.0161 4.95898H12.0636C11.9919 4.95898 11.9336 5.01797 11.9336 5.09121C11.9336 5.16445 11.9919 5.22344 12.0636 5.22344H16.0161C16.0879 5.22344 16.1461 5.16445 16.1461 5.09121C16.1461 5.01797 16.0879 4.95898 16.0161 4.95898Z" fill="black"/>
</svg>
