<?xml version="1.0" encoding="UTF-8"?>
<svg width="82px" height="82px" viewBox="0 0 82 82" version="1.1" xmlns="http://www.w3.org/2000/svg" xmlns:xlink="http://www.w3.org/1999/xlink">
    <!-- Generator: Sketch 53.2 (72643) - https://sketchapp.com -->
    <title>noun_decisions_527992</title>
    <desc>Created with Sketch.</desc>
    <g id="Page-1" stroke="none" stroke-width="1" fill="none" fill-rule="evenodd">
        <g id="Artboard" transform="translate(-1041.000000, -534.000000)" fill="#000000" fill-rule="nonzero">
            <g id="noun_decisions_527992" transform="translate(1041.000000, 534.000000)">
                <g id="Group">
                    <rect id="Rectangle" x="13.203937" y="54.2523622" width="2.64724409" height="2.64724409"></rect>
                    <rect id="Rectangle" x="18.4984252" y="54.2523622" width="2.64724409" height="2.64724409"></rect>
                    <rect id="Rectangle" x="23.8090551" y="54.2523622" width="2.64724409" height="2.64724409"></rect>
                    <rect id="Rectangle" x="39.676378" y="59.5468504" width="2.64724409" height="2.64724409"></rect>
                    <rect id="Rectangle" x="39.676378" y="64.8413386" width="2.64724409" height="2.64724409"></rect>
                    <rect id="Rectangle" x="39.676378" y="70.1519685" width="2.64724409" height="2.64724409"></rect>
                    <rect id="Rectangle" x="55.5437008" y="54.2523622" width="2.64724409" height="2.64724409"></rect>
                    <rect id="Rectangle" x="60.8543307" y="54.2523622" width="2.64724409" height="2.64724409"></rect>
                    <rect id="Rectangle" x="66.1488189" y="54.2523622" width="2.64724409" height="2.64724409"></rect>
                    <path d="M33.0582677,55.5759843 L48.9417323,55.5759843 L48.9417323,39.7086614 L54.2362205,39.7086614 L54.2362205,21.1779528 C54.2362205,17.5299213 51.2661417,14.5598425 47.6181102,14.5598425 L45.2291339,14.5598425 L41,21.3232283 L36.7708661,14.5598425 L34.3818898,14.5598425 C30.7338583,14.5598425 27.7637795,17.5299213 27.7637795,21.1779528 L27.7637795,39.7086614 L33.0582677,39.7086614 L33.0582677,55.5759843 Z M30.4110236,37.0614173 L30.4110236,21.1779528 C30.4110236,18.9826772 32.1866142,17.2070866 34.3818898,17.2070866 L35.3019685,17.2070866 L41,26.3110236 L46.6980315,17.1909449 L47.6181102,17.1909449 C49.8133858,17.1909449 51.5889764,18.9665354 51.5889764,21.161811 L51.5889764,37.0452756 L46.2944882,37.0452756 L46.2944882,52.9287402 L42.323622,52.9287402 L42.323622,39.6925197 L39.676378,39.6925197 L39.676378,52.9287402 L35.7055118,52.9287402 L35.7055118,37.0452756 L30.4110236,37.0452756 L30.4110236,37.0614173 Z" id="Shape"></path>
                    <path d="M41,13.2362205 C44.6480315,13.2362205 47.6181102,10.2661417 47.6181102,6.61811024 C47.6181102,2.97007874 44.6480315,0 41,0 C37.3519685,0 34.3818898,2.97007874 34.3818898,6.61811024 C34.3818898,10.2661417 37.3519685,13.2362205 41,13.2362205 Z M41,2.64724409 C43.1952756,2.64724409 44.9708661,4.42283465 44.9708661,6.61811024 C44.9708661,8.81338583 43.1952756,10.5889764 41,10.5889764 C38.8047244,10.5889764 37.0291339,8.81338583 37.0291339,6.61811024 C37.0291339,4.42283465 38.8047244,2.64724409 41,2.64724409 Z" id="Shape"></path>
                    <polygon id="Path" points="11.880315 44.615748 0.0322834646 55.5759843 11.880315 66.5523622 11.880315 62.1940945 29.0874016 62.1940945 29.0874016 59.5468504 9.23307087 59.5468504 9.23307087 60.4992126 3.92244094 55.5759843 9.23307087 50.6688976 9.23307087 51.6051181 29.0874016 51.6051181 29.0874016 48.957874 11.880315 48.957874"></polygon>
                    <polygon id="Path" points="81.9677165 55.5759843 70.119685 44.615748 70.119685 48.957874 52.9125984 48.957874 52.9125984 51.6051181 72.7669291 51.6051181 72.7669291 50.6688976 78.0775591 55.5759843 72.7669291 60.4992126 72.7669291 59.5468504 52.9125984 59.5468504 52.9125984 62.1940945 70.119685 62.1940945 70.119685 66.5523622"></polygon>
                    <polygon id="Path" points="47.6181102 59.5468504 44.9708661 59.5468504 44.9708661 72.7830709 45.9070866 72.7830709 41 78.0937008 36.0929134 72.7830709 37.0291339 72.7830709 37.0291339 59.5468504 34.3818898 59.5468504 34.3818898 70.1358268 30.0397638 70.1358268 41 82 51.9602362 70.1358268 47.6181102 70.1358268"></polygon>
                </g>
            </g>
        </g>
    </g>
</svg>