<?xml version="1.0" encoding="UTF-8"?>
<svg width="79px" height="85px" viewBox="0 0 79 85" version="1.1" xmlns="http://www.w3.org/2000/svg" xmlns:xlink="http://www.w3.org/1999/xlink">
    <!-- Generator: Sketch 53.2 (72643) - https://sketchapp.com -->
    <title>home icon 2</title>
    <desc>Created with Sketch.</desc>
    <defs>
        <path d="M5.84464865,4.51975758 C6.35935135,4.36945455 6.82443243,4.29672727 7.26518919,4.29672727 C8.54464865,4.29672727 9.4212973,4.90278788 10.7134054,5.90060606 L11.6601081,6.63175758 L12.4083243,5.69987879 C12.6311351,5.42157576 12.8393514,5.14036364 13.0446486,4.864 C13.7656216,3.88751515 14.3348108,3.11660606 15.3972973,2.77236364 C15.9334054,2.59878788 16.4539459,2.51054545 16.9452973,2.51054545 C19.7241081,2.51054545 21.2886486,5.29745455 21.6068108,8.05915152 C21.9794595,11.2930909 20.448973,14.390303 16.9307027,17.526303 C16.7876757,17.6533333 16.6242162,17.8036364 16.4471351,17.9646061 C15.9256216,18.4426667 14.7035676,19.561697 14.3143784,19.6809697 L14.2978378,19.6809697 C14.0283243,19.6809697 13.2382703,19.5510303 10.9780541,18.6841212 C6.11902703,16.8232727 3.43556757,13.9713939 3.00162162,10.2099394 C2.75254054,8.03781818 3.34702703,5.24509091 5.84464865,4.51975758 Z M23.472,15.3929697 L24.0820541,16.4218182 L25.1221622,15.8283636 C25.4315676,15.6518788 25.7302703,15.4666667 26.0231351,15.2833939 C27.0544865,14.6395152 27.8873514,14.1313939 28.9829189,14.2021818 C30.4044324,14.2913939 31.4863784,14.8392727 32.2005405,15.8293333 C33.1598919,17.1607273 33.3875676,19.241697 32.8057297,21.3953939 C31.9553514,24.5401212 29.3876757,26.8586667 24.9616216,28.4829091 C24.7806486,28.5488485 24.5753514,28.6273939 24.3505946,28.7127273 C23.688,28.9658182 22.1351351,29.568 21.7352432,29.526303 C21.5951351,29.4826667 20.9850811,29.1985455 19.0002162,27.3774545 C17.0747027,25.609697 15.7543784,23.8002424 15.0402162,21.9781818 C15.9285405,21.6814545 16.9161081,20.8271515 18.0953514,19.7469091 L18.5536216,19.3318788 C20.4188108,17.6688485 21.7926486,15.9553939 22.716,14.2031515 C22.9631351,14.5561212 23.2073514,14.9449697 23.472,15.3929697 Z M10.1043243,20.9464242 C11.0208649,21.2984242 11.7681081,21.5573333 12.3966486,21.7444848 C13.1176216,24.3054545 14.7726486,26.7975758 17.3500541,29.1626667 C19.3602162,31.0070303 20.4694054,31.7779394 21.3061622,31.9127273 C21.4316757,31.9330909 21.5620541,31.9418182 21.6972973,31.9418182 C22.6138378,31.9418182 23.8008649,31.5190303 25.2184865,30.9769697 L25.7964324,30.7587879 C30.9492973,28.8688485 34.0958919,25.9306667 35.1525405,22.025697 C35.9318919,19.1340606 35.5767568,16.3607273 34.1747027,14.4164848 C33.0314595,12.8290909 31.2878919,11.9185455 29.1337297,11.7837576 C27.3298378,11.6673939 26.0474595,12.4101818 24.9178378,13.1122424 C24.5821622,12.6070303 24.1949189,12.105697 23.7181622,11.6509091 C24.0528649,10.3767273 24.1715676,9.0870303 24.0217297,7.78181818 C23.4904865,3.17866667 20.6455135,0.0853333333 16.9433514,0.0853333333 C16.1970811,0.0853333333 15.4235676,0.213333333 14.6442162,0.465454545 C12.9327568,1.02012121 12.0064865,2.18181818 11.2144865,3.24848485 C10.1734054,2.52606061 8.91048649,1.87248485 7.26324324,1.87248485 C6.59772973,1.87248485 5.88940541,1.98012121 5.16064865,2.19345455 C1.90994595,3.13793939 0.112864865,6.39321212 0.583783784,10.486303 C1.12281081,15.1486061 4.41535135,18.7665455 10.1043243,20.9464242 Z" id="path-1"></path>
        <path d="M11.0344348,18.1363636 C6.77121739,18.1363636 3.30382609,14.6751818 3.30382609,10.4217273 C3.30382609,6.16731818 6.77121739,2.70709091 11.0344348,2.70709091 C15.2966957,2.70709091 18.7650435,6.16731818 18.7650435,10.4217273 C18.7650435,14.6751818 15.2966957,18.1363636 11.0344348,18.1363636 Z M11.0344348,0.320727273 C5.45313043,0.320727273 0.912521739,4.85195455 0.912521739,10.4217273 C0.912521739,15.9915 5.45313043,20.5227273 11.0344348,20.5227273 C16.6157391,20.5227273 21.1563478,15.9915 21.1563478,10.4217273 C21.1563478,4.85195455 16.6157391,0.320727273 11.0344348,0.320727273 Z" id="path-3"></path>
        <path d="M15.882,9.13 C15.882,12.714 12.966,15.63 9.382,15.63 C5.798,15.63 2.882,12.714 2.882,9.13 C2.882,5.545 5.798,2.629 9.382,2.629 C12.966,2.629 15.882,5.545 15.882,9.13 Z M0.381,9.13 C0.381,14.093 4.419,18.13 9.381,18.13 C14.343,18.13 18.381,14.093 18.381,9.13 C18.381,4.167 14.343,0.129 9.381,0.129 C4.419,0.129 0.381,4.167 0.381,9.13 Z" id="path-5"></path>
        <path d="M9.381,2.629 C12.966,2.629 15.882,5.545 15.882,9.13 C15.882,12.714 12.966,15.63 9.381,15.63 C5.797,15.63 2.881,12.714 2.881,9.13 C2.881,5.545 5.797,2.629 9.381,2.629 Z M9.381,18.13 C14.344,18.13 18.382,14.093 18.382,9.13 C18.382,4.167 14.344,0.129 9.381,0.129 C4.418,0.129 0.381,4.167 0.381,9.13 C0.381,14.093 4.418,18.13 9.381,18.13 Z" id="path-7"></path>
        <path d="M76.3179012,22.8423333 L57.3344938,22.8423333 L57.3344938,18.4643 C57.3344938,14.79 56.1924074,11.3767 54.2456914,8.54823333 C56.6351975,5.7739 60.0497531,4.18373333 63.7666543,4.18373333 C70.6874444,4.18373333 76.3179012,9.76333333 76.3179012,16.6237667 L76.3179012,22.8423333 Z M54.8962222,26.1976333 L24.174,26.1976333 L24.174,18.4643 C24.174,10.0688 31.0645556,3.2393 39.5351111,3.2393 C48.0056667,3.2393 54.8962222,10.0688 54.8962222,18.4643 L54.8962222,26.1976333 Z M2.44997531,22.8423333 L2.44997531,16.6237667 C2.44997531,9.76333333 8.0804321,4.18373333 15.0012222,4.18373333 C18.7629877,4.18373333 22.316037,5.887 24.6909136,8.75123333 C22.8270988,11.5410333 21.7357284,14.877 21.7357284,18.4643 L21.7357284,22.8423333 L2.44997531,22.8423333 Z M78.7561728,16.6237667 C78.7561728,8.4303 72.0314198,1.76706667 63.7666543,1.76706667 C59.5513704,1.76706667 55.5204198,3.567 52.6959259,6.62843333 C49.4374198,3.07013333 44.7510617,0.8207 39.5351111,0.8207 C34.2372346,0.8207 29.4865062,3.13876667 26.2231235,6.79276667 C23.3937531,3.6279 19.3081852,1.76706667 15.0021975,1.76706667 C6.73645679,1.76706667 0.0126790123,8.43223333 0.0126790123,16.6237667 L0.0126790123,25.259 L21.7367037,25.259 L21.7367037,28.6143 L57.3354691,28.6143 L57.3354691,25.259 L78.7561728,25.259 L78.7561728,16.6237667 Z" id="path-9"></path>
        <path d="M3.41,6.696 C4.031,6.774 4.084,6.815 4.149,6.923 C4.214,7.031 4.224,7.098 3.998,7.681 C3.744,8.336 3.318,9.432 4.031,10.625 C4.744,11.819 5.911,11.965 6.608,12.052 C7.231,12.13 7.285,12.172 7.35,12.281 C7.415,12.39 7.426,12.457 7.2,13.042 C6.946,13.697 6.522,14.794 7.235,15.988 L9.381,14.706 C9.316,14.597 9.305,14.53 9.531,13.945 C9.785,13.29 10.209,12.193 9.496,10.999 C8.783,9.805 7.616,9.659 6.919,9.572 C6.296,9.494 6.242,9.452 6.177,9.343 C6.113,9.235 6.102,9.168 6.328,8.585 C6.582,7.93 7.008,6.834 6.295,5.641 C5.582,4.448 4.416,4.303 3.718,4.216 C3.097,4.138 3.044,4.097 2.979,3.989 C2.915,3.882 2.904,3.815 3.13,3.232 C3.384,2.577 3.81,1.482 3.097,0.288 L0.951,1.57 C1.015,1.677 1.026,1.744 0.8,2.327 C0.546,2.982 0.12,4.077 0.833,5.271 C1.546,6.465 2.713,6.609 3.41,6.696 Z" id="path-11"></path>
        <path d="M3.41,14.578 C4.074,14.349 5.185,13.964 5.637,12.649 C6.088,11.333 5.447,10.347 5.062,9.758 C4.72,9.233 4.717,9.165 4.758,9.045 C4.798,8.926 4.843,8.875 5.434,8.671 C6.098,8.442 7.21,8.059 7.663,6.743 C8.113,5.429 7.471,4.444 7.087,3.856 C6.744,3.333 6.741,3.265 6.782,3.147 C6.822,3.028 6.867,2.977 7.458,2.773 C8.122,2.544 9.234,2.161 9.685,0.846 L7.321,0.036 C7.28,0.154 7.236,0.205 6.644,0.409 C5.98,0.638 4.87,1.02 4.417,2.335 C3.966,3.65 4.609,4.635 4.993,5.223 C5.335,5.747 5.339,5.815 5.298,5.933 C5.257,6.051 5.213,6.103 4.621,6.308 C3.957,6.537 2.846,6.92 2.393,8.234 C1.943,9.549 2.584,10.535 2.968,11.124 C3.31,11.649 3.314,11.718 3.273,11.839 C3.232,11.959 3.187,12.01 2.594,12.215 C1.93,12.444 0.819,12.829 0.367,14.145 L2.732,14.955 C2.773,14.834 2.817,14.783 3.41,14.578 Z" id="path-13"></path>
        <path d="M4.274,2.917 C4.747,2.917 5.131,3.302 5.131,3.774 C5.131,4.246 4.746,4.631 4.274,4.631 C3.802,4.631 3.417,4.246 3.417,3.774 C3.417,3.302 3.801,2.917 4.274,2.917 Z M4.274,7.131 C6.125,7.131 7.631,5.625 7.631,3.774 C7.631,1.923 6.125,0.417 4.274,0.417 C2.423,0.417 0.917,1.923 0.917,3.774 C0.917,5.625 2.423,7.131 4.274,7.131 Z" id="path-15"></path>
        <path d="M5.521,4.303 C5.521,4.975 4.973,5.523 4.301,5.523 C3.628,5.523 3.081,4.976 3.081,4.303 C3.081,3.63 3.628,3.084 4.301,3.084 C4.975,3.083 5.521,3.63 5.521,4.303 Z M0.583,4.303 C0.583,6.354 2.252,8.023 4.303,8.023 C6.354,8.023 8.023,6.355 8.023,4.303 C8.023,2.252 6.354,0.584 4.303,0.584 C2.252,0.584 0.583,2.252 0.583,4.303 Z" id="path-17"></path>
        <rect id="path-19" x="0.773" y="0.191" width="2.5" height="3.284"></rect>
        <rect id="path-21" x="0.773" y="0.191" width="2.5" height="3.284"></rect>
        <rect id="path-23" x="0.381" y="0.583" width="3.284" height="2.5"></rect>
        <rect id="path-25" x="0.381" y="0.583" width="3.284" height="2.5"></rect>
        <rect id="path-27" x="0.053" y="0.358" width="2.5" height="3.284"></rect>
        <rect id="path-29" x="0.053" y="0.358" width="2.5" height="3.284"></rect>
        <rect id="path-31" x="0.66" y="0.75" width="3.285" height="2.5"></rect>
        <rect id="path-33" x="0.66" y="0.75" width="3.285" height="2.5"></rect>
    </defs>
    <g id="Page-1" stroke="none" stroke-width="1" fill="none" fill-rule="evenodd">
        <g id="Artboard" transform="translate(-1208.000000, -324.000000)">
            <g id="home-icon-2" transform="translate(1208.000000, 324.000000)">
                <g id="Clipped" transform="translate(22.000000, 1.000000)">
                    <mask id="mask-2" fill="white">
                        <use xlink:href="#path-1"></use>
                    </mask>
                    <g id="SVGID_1_"></g>
                    <rect id="Rectangle" fill="#000000" fill-rule="nonzero" mask="url(#mask-2)" x="-4.35405405" y="-4.76315152" width="44.7771892" height="41.5534545"></rect>
                </g>
                <g id="Clipped" transform="translate(29.000000, 34.000000)">
                    <mask id="mask-4" fill="white">
                        <use xlink:href="#path-3"></use>
                    </mask>
                    <g id="SVGID_3_"></g>
                    <rect id="Rectangle" fill="#000000" fill-rule="nonzero" mask="url(#mask-4)" x="-3.87008696" y="-4.452" width="29.8090435" height="29.7474545"></rect>
                </g>
                <g id="Clipped" transform="translate(6.000000, 39.000000)">
                    <mask id="mask-6" fill="white">
                        <use xlink:href="#path-5"></use>
                    </mask>
                    <g id="SVGID_5_"></g>
                    <rect id="Rectangle" fill="#000000" fill-rule="nonzero" mask="url(#mask-6)" x="-4.619" y="-4.871" width="28" height="28.001"></rect>
                </g>
                <g id="Clipped" transform="translate(54.000000, 39.000000)">
                    <mask id="mask-8" fill="white">
                        <use xlink:href="#path-7"></use>
                    </mask>
                    <g id="SVGID_7_"></g>
                    <rect id="Rectangle" fill="#000000" fill-rule="nonzero" mask="url(#mask-8)" x="-4.619" y="-4.871" width="28.001" height="28.001"></rect>
                </g>
                <g id="Clipped" transform="translate(0.000000, 56.000000)">
                    <mask id="mask-10" fill="white">
                        <use xlink:href="#path-9"></use>
                    </mask>
                    <g id="SVGID_9_"></g>
                    <rect id="Rectangle" fill="#000000" fill-rule="nonzero" mask="url(#mask-10)" x="-4.8638642" y="-4.01166667" width="88.4965802" height="37.4593"></rect>
                </g>
                <g id="Clipped" transform="translate(1.000000, 11.000000)">
                    <mask id="mask-12" fill="white">
                        <use xlink:href="#path-11"></use>
                    </mask>
                    <g id="SVGID_11_"></g>
                    <rect id="Rectangle" fill="#000000" fill-rule="nonzero" mask="url(#mask-12)" x="-4.56" y="-4.712" width="19.45" height="25.7"></rect>
                </g>
                <g id="Clipped" transform="translate(69.000000, 12.000000)">
                    <mask id="mask-14" fill="white">
                        <use xlink:href="#path-13"></use>
                    </mask>
                    <g id="SVGID_13_"></g>
                    <rect id="Rectangle" fill="#000000" fill-rule="nonzero" mask="url(#mask-14)" x="-4.633" y="-4.964" width="19.316" height="24.919"></rect>
                </g>
                <g id="Clipped" transform="translate(9.000000, 0.000000)">
                    <mask id="mask-16" fill="white">
                        <use xlink:href="#path-15"></use>
                    </mask>
                    <g id="SVGID_15_"></g>
                    <rect id="Rectangle" fill="#000000" fill-rule="nonzero" mask="url(#mask-16)" x="-4.083" y="-4.583" width="16.714" height="16.714"></rect>
                </g>
                <g id="Clipped" transform="translate(58.000000, 26.000000)">
                    <mask id="mask-18" fill="white">
                        <use xlink:href="#path-17"></use>
                    </mask>
                    <g id="SVGID_17_"></g>
                    <rect id="Rectangle" fill="#000000" fill-rule="nonzero" mask="url(#mask-18)" x="-4.417" y="-4.416" width="17.439" height="17.439"></rect>
                </g>
                <g id="Clipped" transform="translate(18.000000, 24.000000)">
                    <mask id="mask-20" fill="white">
                        <use xlink:href="#path-19"></use>
                    </mask>
                    <g id="SVGID_19_"></g>
                    <rect id="Rectangle" fill="#000000" fill-rule="nonzero" mask="url(#mask-20)" x="-4.227" y="-4.809" width="12.5" height="13.284"></rect>
                </g>
                <g id="Clipped" transform="translate(18.000000, 30.000000)">
                    <mask id="mask-22" fill="white">
                        <use xlink:href="#path-21"></use>
                    </mask>
                    <g id="SVGID_21_"></g>
                    <rect id="Rectangle" fill="#000000" fill-rule="nonzero" mask="url(#mask-22)" x="-4.227" y="-4.809" width="12.5" height="13.284"></rect>
                </g>
                <g id="Clipped" transform="translate(20.000000, 27.000000)">
                    <mask id="mask-24" fill="white">
                        <use xlink:href="#path-23"></use>
                    </mask>
                    <g id="SVGID_23_"></g>
                    <rect id="Rectangle" fill="#000000" fill-rule="nonzero" mask="url(#mask-24)" x="-4.619" y="-4.417" width="13.284" height="12.5"></rect>
                </g>
                <g id="Clipped" transform="translate(15.000000, 27.000000)">
                    <mask id="mask-26" fill="white">
                        <use xlink:href="#path-25"></use>
                    </mask>
                    <g id="SVGID_25_"></g>
                    <rect id="Rectangle" fill="#000000" fill-rule="nonzero" mask="url(#mask-26)" x="-4.619" y="-4.417" width="13.284" height="12.5"></rect>
                </g>
                <g id="Clipped" transform="translate(61.000000, 0.000000)">
                    <mask id="mask-28" fill="white">
                        <use xlink:href="#path-27"></use>
                    </mask>
                    <g id="SVGID_27_"></g>
                    <rect id="Rectangle" fill="#000000" fill-rule="nonzero" mask="url(#mask-28)" x="-4.947" y="-4.642" width="12.5" height="13.284"></rect>
                </g>
                <g id="Clipped" transform="translate(61.000000, 6.000000)">
                    <mask id="mask-30" fill="white">
                        <use xlink:href="#path-29"></use>
                    </mask>
                    <g id="SVGID_29_"></g>
                    <rect id="Rectangle" fill="#000000" fill-rule="nonzero" mask="url(#mask-30)" x="-4.947" y="-4.642" width="12.5" height="13.284"></rect>
                </g>
                <g id="Clipped" transform="translate(63.000000, 3.000000)">
                    <mask id="mask-32" fill="white">
                        <use xlink:href="#path-31"></use>
                    </mask>
                    <g id="SVGID_31_"></g>
                    <rect id="Rectangle" fill="#000000" fill-rule="nonzero" mask="url(#mask-32)" x="-4.34" y="-4.25" width="13.285" height="12.5"></rect>
                </g>
                <g id="Clipped" transform="translate(57.000000, 3.000000)">
                    <mask id="mask-34" fill="white">
                        <use xlink:href="#path-33"></use>
                    </mask>
                    <g id="SVGID_33_"></g>
                    <rect id="Rectangle" fill="#000000" fill-rule="nonzero" mask="url(#mask-34)" x="-4.34" y="-4.25" width="13.285" height="12.5"></rect>
                </g>
            </g>
        </g>
    </g>
</svg>