<?xml version="1.0" encoding="UTF-8"?>
<svg width="75px" height="66px" viewBox="0 0 75 66" version="1.1" xmlns="http://www.w3.org/2000/svg" xmlns:xlink="http://www.w3.org/1999/xlink">
    <!-- Generator: Sketch 53.2 (72643) - https://sketchapp.com -->
    <title>noun_Graph_2258503</title>
    <desc>Created with Sketch.</desc>
    <g id="Page-1" stroke="none" stroke-width="1" fill="none" fill-rule="evenodd">
        <g id="Artboard" transform="translate(-1192.000000, -441.000000)" fill="#000000" fill-rule="nonzero">
            <g id="noun_Graph_2258503" transform="translate(1192.000000, 441.000000)">
                <g id="Group">
                    <path d="M46.32,35.46 C46.0627505,35.4560077 45.8103957,35.3890565 45.585,35.265 L27.18,24.93 L7.32,34.86 C6.84258527,35.1051359 6.27058115,35.0765357 5.82,34.785 C5.38052182,34.5103268 5.11396292,34.0282522 5.115,33.51 L5.115,24.915 C5.11671196,24.3501627 5.43558052,23.8341754 5.94,23.58 L26.505,13.08 C26.9295714,12.8660571 27.4304286,12.8660571 27.855,13.08 L45.45,21.915 L61.05,7.755 L57,3.72 C56.5760137,3.30059348 56.4407594,2.66985702 56.6555004,2.1134826 C56.8702414,1.55710817 57.3941806,1.18079733 57.99,1.155 L73.5,0.48 C74.3284271,0.48 75,1.15157288 75,1.98 L75,18.09 C74.9974563,18.6966661 74.6297291,19.2420683 74.0682785,19.4719019 C73.5068279,19.7017354 72.8622137,19.5707421 72.435,19.14 L68.325,15 L47.325,35.01 C47.0591623,35.2819837 46.6999343,35.442832 46.32,35.46 Z M27.21,21.72 C27.4672495,21.7239923 27.7196043,21.7909435 27.945,21.915 L46.08,32.1 L67.32,11.85 C67.9032653,11.2782857 68.8367347,11.2782857 69.42,11.85 L72,14.46 L72,3.54 L61.5,4.005 L64.23,6.735 C64.5280962,7.01819095 64.6968767,7.41133279 64.6968767,7.8225 C64.6968767,8.23366721 64.5280962,8.62680905 64.23,8.91 L46.74,24.87 C46.2834307,25.289543 45.6157786,25.3849219 45.06,25.11 L27.225,16.11 L8.145,25.83 L8.145,31.08 L26.55,21.885 C26.7544595,21.7801779 26.9802665,21.7237261 27.21,21.72 Z" id="Shape"></path>
                    <path d="M15.465,65.535 L6.645,65.535 C5.81657288,65.535 5.145,64.8634271 5.145,64.035 L5.145,41.22 C5.145,40.3915729 5.81657288,39.72 6.645,39.72 L15.465,39.72 C16.2934271,39.72 16.965,40.3915729 16.965,41.22 L16.965,64.035 C16.965,64.8634271 16.2934271,65.535 15.465,65.535 Z M8.145,62.535 L13.965,62.535 L13.965,42.72 L8.145,42.72 L8.145,62.535 Z" id="Shape"></path>
                    <path d="M50.73,65.535 L41.91,65.535 C41.0815729,65.535 40.41,64.8634271 40.41,64.035 L40.41,41.22 C40.41,40.3915729 41.0815729,39.72 41.91,39.72 L50.73,39.72 C51.5584271,39.72 52.23,40.3915729 52.23,41.22 L52.23,64.035 C52.23,64.8634271 51.5584271,65.535 50.73,65.535 Z M43.41,62.535 L49.23,62.535 L49.23,42.72 L43.41,42.72 L43.41,62.535 Z" id="Shape"></path>
                    <path d="M33.09,65.535 L24.27,65.535 C23.4415729,65.535 22.77,64.8634271 22.77,64.035 L22.77,36.945 C22.77,36.1165729 23.4415729,35.445 24.27,35.445 L33.09,35.445 C33.9184271,35.445 34.59,36.1165729 34.59,36.945 L34.59,64.035 C34.59,64.8634271 33.9184271,65.535 33.09,65.535 Z M25.77,62.535 L31.59,62.535 L31.59,38.445 L25.77,38.445 L25.77,62.535 Z" id="Shape"></path>
                    <path d="M68.355,65.535 L59.535,65.535 C58.7065729,65.535 58.035,64.8634271 58.035,64.035 L58.035,28.365 C58.035,27.5365729 58.7065729,26.865 59.535,26.865 L68.355,26.865 C69.1834271,26.865 69.855,27.5365729 69.855,28.365 L69.855,64.035 C69.855,64.8634271 69.1834271,65.535 68.355,65.535 Z M61.035,62.535 L66.855,62.535 L66.855,29.865 L61.035,29.865 L61.035,62.535 Z" id="Shape"></path>
                    <path d="M73.5,65.535 L1.5,65.535 C0.671572875,65.535 0,64.8634271 0,64.035 C0,63.2065729 0.671572875,62.535 1.5,62.535 L73.5,62.535 C74.3284271,62.535 75,63.2065729 75,64.035 C75,64.8634271 74.3284271,65.535 73.5,65.535 Z" id="Path"></path>
                </g>
            </g>
        </g>
    </g>
</svg>