<?xml version="1.0" encoding="UTF-8"?>
<svg width="82px" height="84px" viewBox="0 0 82 84" version="1.1" xmlns="http://www.w3.org/2000/svg" xmlns:xlink="http://www.w3.org/1999/xlink">
    <!-- Generator: Sketch 53.2 (72643) - https://sketchapp.com -->
    <title>noun_schedule_2125094</title>
    <desc>Created with Sketch.</desc>
    <g id="Page-1" stroke="none" stroke-width="1" fill="none" fill-rule="evenodd">
        <g id="Artboard" transform="translate(-1088.000000, -430.000000)" fill="#000000" fill-rule="nonzero">
            <g id="noun_schedule_2125094" transform="translate(1088.000000, 430.000000)">
                <path d="M49.1010195,32 C48.3716404,32 48,32.3716091 48,33.1009267 L48,41.8990733 C48,42.6274642 48.3707136,43 49.1010195,43 L57.8999073,43 C58.6283596,43 59,42.6283909 59,41.8990733 L59,33.1009267 C59,32.3725358 58.6292864,32 57.8999073,32 L49.1010195,32 Z M56.2650602,40.2643639 L50.7358665,40.2643639 L50.7358665,34.7347094 L56.2650602,34.7347094 L56.2650602,40.2643639 Z" id="Shape"></path>
                <path d="M23,33.1009267 C23,32.3725358 22.6310778,32 21.9006489,32 L13.1002781,32 C12.3707761,32 12,32.3716091 12,33.1009267 L12,41.8990733 C12,42.6274642 12.3707761,43 13.1002781,43 L21.9006489,43 C22.6310778,43 23,42.6283909 23,41.8990733 L23,33.1009267 Z M20.2645993,40.2652906 L14.7354007,40.2652906 L14.7354007,34.7356361 L20.2645993,34.7356361 L20.2645993,40.2652906 Z" id="Shape"></path>
                <path d="M41,33.1009267 C41,32.3725358 40.630182,32 39.8998146,32 L31.1011122,32 C30.3716717,32 30,32.3716091 30,33.1009267 L30,41.8990733 C30,42.6274642 30.3707449,43 31.1011122,43 L39.8998146,43 C40.6292551,43 41,42.6283909 41,41.8990733 L41,33.1009267 Z M38.2648298,40.2652906 L32.7360971,40.2652906 L32.7360971,34.7356361 L38.2648298,34.7356361 L38.2648298,40.2652906 L38.2648298,40.2652906 Z" id="Shape"></path>
                <path d="M21.9006489,48 L13.1002781,48 C12.3707761,48 12,48.3698492 12,49.1002781 L12,57.8997219 C12,58.6292239 12.3707761,59 13.1002781,59 L21.9006489,59 C22.6310778,59 23,58.6301508 23,57.8997219 L23,49.1002781 C23,48.3698492 22.6301508,48 21.9006489,48 Z M20.2645993,56.2645993 L14.7354007,56.2645993 L14.7354007,50.7344738 L20.2645993,50.7344738 L20.2645993,56.2645993 Z" id="Shape"></path>
                <path d="M39.8998146,48 L31.1011122,48 C30.3716717,48 30,48.3698492 30,49.1002781 L30,57.8997219 C30,58.6292239 30.3707449,59 31.1011122,59 L39.8998146,59 C40.6292551,59 41,58.6301508 41,57.8997219 L41,49.1002781 C41,48.3698492 40.630182,48 39.8998146,48 Z M38.2648298,56.2645993 L32.7360971,56.2645993 L32.7360971,50.7344738 L38.2648298,50.7344738 L38.2648298,56.2645993 L38.2648298,56.2645993 Z" id="Shape"></path>
                <path d="M63,46 C52.5238905,46 44,54.5217434 44,64.9976933 C44,75.4782566 52.5238905,84 63,84 C73.4742643,84 82,75.4782566 82,64.9976933 C82,54.522666 73.4742643,46 63,46 Z M63,81.2772126 C54.0240361,81.2772126 46.7225891,73.974311 46.7225891,64.9976933 C46.7225891,56.022921 54.0249587,48.7227874 63,48.7227874 C71.9750413,48.7227874 79.2774109,56.022921 79.2774109,64.9976933 C79.2774109,73.974311 71.9759639,81.2772126 63,81.2772126 Z" id="Shape"></path>
                <path d="M38.9712725,72 C39.7275728,72 40.3400369,71.3824434 40.3400369,70.6210082 C40.3400369,69.8595731 39.7275728,69.2420165 38.9712725,69.2420165 L8.70998104,69.2420165 C4.57956067,69.2420165 2.73845664,67.3884124 2.73845664,63.2299487 L2.73845664,19.2965419 C2.73845664,15.137144 4.57956067,13.2816713 8.70998104,13.2816713 L11.6321769,13.2816713 L11.6321769,14.721391 C11.6321769,17.968001 13.7990004,20.1486018 17.0227884,20.1486018 C20.2475044,20.1486018 22.4143279,17.968001 22.4143279,14.721391 L22.4143279,13.2816713 L47.5856721,13.2816713 L47.5856721,14.721391 C47.5856721,17.968001 49.7515676,20.1486018 52.9762836,20.1486018 C56.2009996,20.1486018 58.3678231,17.968001 58.3678231,14.721391 L58.3678231,13.2816713 L61.289091,13.2816713 C65.4195114,13.2816713 67.2615434,15.1362097 67.2615434,19.2965419 L67.2615434,42.0274833 C67.2615434,42.7879842 67.8749354,43.4064751 68.6312357,43.4064751 C69.387536,43.4064751 70,42.7889184 70,42.0274833 L70,19.2965419 C70,13.6404334 66.9070566,10.5255563 61.289091,10.5255563 L58.3678231,10.5255563 L58.3678231,5.42627652 C58.3678231,2.23105171 56.1508889,0 52.9762836,0 C49.8026063,0 47.5856721,2.23105171 47.5856721,5.42627652 L47.5856721,10.5255563 L22.4143279,10.5255563 L22.4143279,5.42627652 C22.4143279,2.23105171 20.1973937,0 17.0227884,0 C13.8491111,0 11.6321769,2.23105171 11.6321769,5.42627652 L11.6321769,10.5255563 L8.70998104,10.5255563 C3.09294341,10.5255563 0,13.6404334 0,19.2965419 L0,63.230883 C0,68.8860572 3.09294341,72 8.70998104,72 L38.9712725,72 Z M50.3241287,5.4272108 C50.3241287,3.73149938 51.2910795,2.7589178 52.9762836,2.7589178 C54.6624157,2.7589178 55.6293665,3.73149938 55.6293665,5.4272108 L55.6293665,14.7223253 C55.6293665,16.418971 54.6624157,17.3915526 52.9762836,17.3915526 C51.2910795,17.3915526 50.3241287,16.418971 50.3241287,14.7223253 L50.3241287,5.4272108 Z M14.3706335,5.4272108 C14.3706335,3.73149938 15.3375843,2.7589178 17.0227884,2.7589178 C18.7089205,2.7589178 19.6758713,3.73149938 19.6758713,5.4272108 L19.6758713,14.7223253 C19.6758713,16.418971 18.7089205,17.3915526 17.0227884,17.3915526 C15.3375843,17.3915526 14.3706335,16.418971 14.3706335,14.7223253 L14.3706335,5.4272108 Z" id="Shape"></path>
                <rect id="Rectangle" x="7" y="24" width="57" height="3"></rect>
                <path d="M70.4505329,71.5153063 L62.7135524,65.7061803 L62.7135524,54.3771715 C62.7135524,53.6176745 62.1066582,53 61.357236,53 C60.6078137,53 60,53.6167415 60,54.3771715 L60,66.4003643 C60,66.8370285 60.2041371,67.2466344 60.5498829,67.5078864 L68.8358267,73.7303506 C69.0785844,73.912294 69.3608821,74 69.6413408,74 C70.0569713,74 70.466165,73.8068601 70.7328306,73.4420403 C71.1797254,72.829964 71.0528294,71.9678322 70.4505329,71.5153063 Z" id="Path"></path>
            </g>
        </g>
    </g>
</svg>