<svg width="34" height="37" viewBox="0 0 34 37" fill="none" xmlns="http://www.w3.org/2000/svg">
    <path d="M16.5925 26.5417C19.6082 26.5417 22.6244 25.3938 24.9199 23.0978C29.5121 18.5059 29.5121 11.0338 24.9199 6.44206C20.3281 1.84988 12.8568 1.85021 8.2642 6.44206C3.67235 11.0339 3.67235 18.506 8.2642 23.0978C10.5603 25.3938 13.5761 26.5417 16.5925 26.5417ZM8.91319 7.0908C13.1479 2.85671 20.0375 2.85671 24.2713 7.0908C28.5053 11.3252 28.5053 18.2151 24.2713 22.4489C20.0372 26.6833 13.147 26.6829 8.91319 22.4489C4.6791 18.2144 4.6791 11.3246 8.91319 7.0908Z" fill="black"/>
    <path d="M0.445347 30.6224L7.10091 30.8227L10.0889 36.3874C10.167 36.5327 10.3171 36.6252 10.4822 36.629C10.4857 36.6293 10.4892 36.6293 10.4931 36.6293C10.654 36.6293 10.8038 36.5448 10.8867 36.4063L15.0452 29.4591C15.5595 29.5129 16.076 29.5423 16.5925 29.5423C17.1624 29.5423 17.732 29.5055 18.2991 29.4403L22.4874 36.4369C22.5703 36.5755 22.7201 36.66 22.881 36.66C22.8846 36.66 22.8881 36.66 22.8919 36.6597C23.057 36.6558 23.2074 36.5637 23.2852 36.4181L26.2732 30.8534L32.9287 30.6531C33.0913 30.6483 33.2392 30.5574 33.3176 30.4146C33.3956 30.2719 33.3921 30.0985 33.3086 29.959L29.0108 22.7795C32.7022 17.058 32.0477 9.32695 27.0422 4.32147C21.2807 -1.44033 11.9053 -1.44065 6.14285 4.32147C3.35109 7.11258 1.81406 10.8238 1.81406 14.7707C1.81406 17.7129 2.66917 20.5236 4.26019 22.9204L0.0651721 29.928C-0.0183481 30.0675 -0.0218716 30.2413 0.0562105 30.3837C0.134293 30.5264 0.282138 30.617 0.445025 30.6221L0.445347 30.6224ZM32.1191 29.7593L25.9798 29.944C25.8159 29.9488 25.6671 30.0409 25.5897 30.1856L22.8587 35.2715L19.281 29.2947C22.1259 28.7724 24.8463 27.4159 27.0415 25.2203C27.5522 24.7096 28.0156 24.1691 28.4358 23.6065L32.1191 29.7593ZM6.79108 4.97031C9.49322 2.2685 13.0425 0.917346 16.5915 0.917346C20.1405 0.917346 23.6899 2.26842 26.3919 4.97031C31.7963 10.3747 31.7963 19.1675 26.3919 24.572C20.9876 29.976 12.1947 29.976 6.79026 24.572C4.17258 21.954 2.73091 18.4732 2.73091 14.7716C2.73091 11.0694 4.17258 7.58856 6.79059 4.97031H6.79108ZM4.8432 23.7331C5.24098 24.2521 5.67234 24.7504 6.14242 25.2205C8.37768 27.4557 11.1573 28.82 14.0582 29.3208L10.5144 35.241L7.78341 30.1551C7.70597 30.0108 7.55716 29.9186 7.39332 29.9135L1.25395 29.7288L4.8432 23.7331Z" fill="black"/>
    <path d="M16.5946 18.0115C18.3806 18.0115 19.8338 16.5583 19.8338 14.7723C19.8338 12.9863 18.3806 11.5332 16.5946 11.5332C14.8083 11.5332 13.3555 12.9863 13.3555 14.7723C13.3555 16.5583 14.8083 18.0115 16.5946 18.0115ZM16.5946 12.4507C17.8747 12.4507 18.9163 13.492 18.9163 14.7723C18.9163 16.0527 17.875 17.094 16.5946 17.094C15.3142 17.0937 14.2729 16.0524 14.2729 14.7723C14.2729 13.492 15.3142 12.4507 16.5946 12.4507Z" fill="black"/>
    <path d="M10.2546 15.6696C10.125 15.6834 10.0075 15.7515 9.93105 15.8565C9.85457 15.9621 9.82673 16.0949 9.85393 16.2219C10.0283 17.0348 10.3471 17.8031 10.8005 18.5049C10.8713 18.614 10.9849 18.6882 11.1132 18.7087C11.2425 18.7302 11.3727 18.6943 11.4742 18.6127C11.8345 18.3215 12.3535 18.3493 12.6815 18.6773C13.0096 19.0054 13.0374 19.5244 12.7462 19.8844C12.6643 19.9855 12.6294 20.1167 12.6502 20.245C12.6707 20.3737 12.7446 20.4873 12.854 20.558C13.5558 21.0118 14.3238 21.3305 15.1366 21.5046C15.1686 21.5117 15.201 21.5149 15.233 21.5149C15.329 21.5149 15.4234 21.4848 15.5021 21.4275C15.6074 21.351 15.6755 21.2336 15.689 21.104C15.7373 20.6432 16.1242 20.2956 16.5885 20.2956C17.0525 20.2956 17.4394 20.6432 17.4878 21.104C17.5015 21.2336 17.5697 21.351 17.6746 21.4275C17.7799 21.5043 17.9127 21.5328 18.0401 21.5046C18.8529 21.3302 19.6213 21.0118 20.323 20.558C20.4325 20.4873 20.5064 20.3737 20.5269 20.245C20.5474 20.1167 20.5125 19.9855 20.4309 19.8844C20.1397 19.5241 20.1675 19.0054 20.4955 18.6773C20.8235 18.3493 21.3426 18.3215 21.7026 18.6127C21.8034 18.6943 21.9349 18.7302 22.0632 18.7087C22.1919 18.6882 22.3055 18.6143 22.3762 18.5049C22.83 17.8031 23.1487 17.0351 23.3228 16.2219C23.35 16.0946 23.3222 15.9618 23.2457 15.8565C23.1692 15.7509 23.0518 15.683 22.9221 15.6696C22.4613 15.6213 22.1138 15.2344 22.1138 14.7703C22.1138 14.3063 22.4613 13.9194 22.9221 13.8711C23.0518 13.8573 23.1692 13.7895 23.2457 13.6842C23.3222 13.5789 23.35 13.4461 23.3228 13.3187C23.1484 12.5059 22.83 11.7375 22.3762 11.0358C22.3055 10.9264 22.1919 10.8524 22.0632 10.8319C21.9368 10.8108 21.8037 10.8467 21.7026 10.9279C21.3426 11.2188 20.8235 11.1916 20.4955 10.8633C20.1675 10.5353 20.1397 10.0162 20.4309 9.65626C20.5128 9.55513 20.5477 9.42393 20.5269 9.29561C20.5064 9.16697 20.4325 9.05336 20.323 8.98264C19.6212 8.52886 18.8533 8.21013 18.0401 8.03602C17.9118 8.00786 17.7796 8.03634 17.6746 8.11315C17.5694 8.18963 17.5012 8.30707 17.4878 8.43667C17.4394 8.89749 17.0525 9.24502 16.5885 9.24502C16.1242 9.24502 15.7372 8.89749 15.689 8.43667C15.6752 8.30707 15.6071 8.18963 15.5021 8.11315C15.3968 8.03666 15.265 8.00883 15.1366 8.03602C14.3238 8.21043 13.5558 8.52884 12.854 8.98264C12.7446 9.05336 12.6707 9.16697 12.6502 9.29561C12.6297 9.42393 12.6646 9.55514 12.7462 9.65626C13.0374 10.0166 13.0096 10.5353 12.6815 10.8633C12.3535 11.1916 11.8345 11.2188 11.4742 10.9279C11.373 10.8463 11.2425 10.8108 11.1132 10.8319C10.9849 10.8524 10.871 10.9267 10.8006 11.0358C10.3471 11.7376 10.0284 12.5056 9.85394 13.3187C9.82674 13.4461 9.85458 13.5789 9.93106 13.6842C10.0075 13.7895 10.125 13.8576 10.2546 13.8711C10.7154 13.9194 11.0629 14.3063 11.0629 14.7703C11.0629 15.2343 10.7154 15.6213 10.2546 15.6696ZM11.9807 14.7703C11.9807 14.0151 11.524 13.362 10.8588 13.0867C10.9788 12.6778 11.1423 12.2838 11.3477 11.9088C12.0124 12.1837 12.797 12.0448 13.3305 11.5113C13.864 10.9779 14.0032 10.1928 13.728 9.52853C14.103 9.32309 14.4966 9.15956 14.9056 9.03988C15.1808 9.70487 15.8343 10.1618 16.5892 10.1618C17.3444 10.1618 17.9975 9.70516 18.2728 9.03988C18.6818 9.15988 19.0757 9.32341 19.4508 9.52853C19.1756 10.1932 19.3144 10.9778 19.8482 11.5113C20.3817 12.0454 21.1667 12.1853 21.831 11.9088C22.0365 12.2838 22.2 12.6774 22.3197 13.0867C21.6544 13.3619 21.1977 14.0151 21.1977 14.7703C21.1977 15.5256 21.6544 16.1787 22.3197 16.4539C22.1997 16.8629 22.0361 17.2568 21.831 17.6319C21.1663 17.3564 20.3817 17.4959 19.8482 18.0293C19.3148 18.5628 19.1756 19.3478 19.4508 20.0121C19.0757 20.2176 18.6818 20.3811 18.2728 20.5008C17.9976 19.8358 17.3445 19.3788 16.5892 19.3788C15.834 19.3788 15.1805 19.8355 14.9056 20.5008C14.4966 20.3808 14.103 20.2172 13.728 20.0121C14.0032 19.3475 13.8643 18.5628 13.3305 18.0293C12.7971 17.4956 12.0114 17.357 11.3477 17.6319C11.142 17.2568 10.9788 16.8632 10.8588 16.4539C11.5237 16.1784 11.9807 15.5252 11.9807 14.7703Z" fill="black"/>
</svg>
