<svg width="20" height="19" viewBox="0 0 20 19" fill="none" xmlns="http://www.w3.org/2000/svg">
    <path d="M4.67572 0.962778H4.6783V8.22536C4.6783 8.31302 4.74938 8.38409 4.83703 8.38409H15.1623C15.25 8.38409 15.321 8.31302 15.321 8.22536V0.962778H15.3236C15.5891 0.962778 15.805 0.746825 15.805 0.481389C15.805 0.215952 15.5891 0 15.3237 0H4.67572C4.41029 0 4.19434 0.215952 4.19434 0.481389C4.19434 0.746825 4.41025 0.962778 4.67572 0.962778ZM15.0036 8.06663H4.99576V0.962778H15.0036L15.0036 8.06663ZM4.67572 0.31746H15.3237C15.414 0.31746 15.4876 0.391032 15.4876 0.481389C15.4876 0.571746 15.414 0.645317 15.3237 0.645317H4.67572C4.58537 0.645317 4.5118 0.571786 4.5118 0.481389C4.5118 0.390992 4.58537 0.31746 4.67572 0.31746Z" fill="black"/>
    <path d="M20 15.2986V10.8833C20 10.6487 19.8813 10.4345 19.6823 10.3102L18.8382 9.7826C18.6269 9.6505 18.3705 9.64371 18.1524 9.76458C17.9343 9.88542 17.8042 10.1064 17.8042 10.3557V13.1854C17.8042 13.4328 17.6951 13.6657 17.505 13.8241L17.1674 14.1054L16.7111 13.4057L17.1168 13.0676C17.3087 12.9077 17.4187 12.6728 17.4187 12.4231V9.38935C17.4187 9.21093 17.3284 9.048 17.1771 8.95343L16.5971 8.59093C16.4363 8.49046 16.2413 8.48534 16.0754 8.57724C15.9095 8.66915 15.8105 8.83724 15.8105 9.02689V10.9711C15.8105 11.1264 15.7421 11.2724 15.6229 11.3718L15.4685 11.5005L14.3275 9.75109C14.2983 9.70617 14.2482 9.67907 14.1946 9.67907H5.80528C5.75163 9.67907 5.70163 9.70617 5.6723 9.75109L4.53139 11.5005L4.37698 11.3718C4.25774 11.2724 4.18933 11.1264 4.18933 10.9711V9.02685C4.18933 8.83724 4.09032 8.66915 3.92444 8.5772C3.75861 8.4853 3.56361 8.49038 3.40278 8.59089L2.82278 8.95339C2.67147 9.04796 2.58115 9.21089 2.58115 9.38931V12.423C2.58115 12.6728 2.69119 12.9077 2.88306 13.0676L3.28873 13.4057L2.83242 14.1053L2.49484 13.824C2.30472 13.6656 2.19567 13.4328 2.19567 13.1853V10.3557C2.19567 10.1064 2.06552 9.88538 1.84746 9.76454C1.6294 9.64367 1.37298 9.65046 1.16163 9.78256L0.317659 10.3101C0.11873 10.4345 0 10.6487 0 10.8833V15.2986C0 15.6406 0.150675 15.9623 0.413373 16.1812L1.10369 16.7564L0.187103 18.1618C0.139206 18.2352 0.159921 18.3336 0.233333 18.3815C0.306825 18.4294 0.405119 18.4086 0.453016 18.3352L5.89135 9.99645H14.1087L19.547 18.3352C19.5775 18.3819 19.6283 18.4072 19.6801 18.4072C19.7098 18.4072 19.7399 18.3989 19.7667 18.3814C19.8401 18.3336 19.8608 18.2352 19.8129 18.1618L18.8963 16.7564L19.5866 16.1811C19.8493 15.9622 20 15.6406 20 15.2986ZM0.317778 15.3095C0.317698 15.3059 0.31746 15.3022 0.31746 15.2986V10.8833C0.31746 10.7589 0.380437 10.6453 0.485913 10.5794L1.33004 10.0518C1.4421 9.98173 1.57806 9.97815 1.69373 10.0422C1.80937 10.1063 1.87837 10.2235 1.87837 10.3557L1.88976 13.3444L0.317778 15.3095ZM1.27825 16.4887L0.417064 15.6935L2.00476 13.7089C2.14873 13.9451 2.3881 14.1622 2.65802 14.3731L1.27825 16.4887ZM2.89877 9.38935C2.89877 9.32113 2.93333 9.25879 2.99119 9.22264L3.57119 8.86014C3.63266 8.82165 3.70726 8.81974 3.77067 8.8549C3.83413 8.89006 3.87198 8.95435 3.87198 9.02685L3.87738 11.066L2.89877 12.2893V9.38935ZM3.46349 13.138L2.9777 12.6987L4.00155 11.4189L4.35687 11.7682L3.46349 13.138ZM16.128 9.02685C16.128 8.95431 16.1659 8.89006 16.2293 8.8549C16.2927 8.81974 16.3673 8.82173 16.4288 8.86014L17.0088 9.22264C17.0667 9.25879 17.1012 9.32109 17.1012 9.38935V12.2893L16.1226 11.066L16.128 9.02685ZM15.6431 11.7682C15.7666 11.6712 15.8841 11.5512 15.9985 11.4189L17.0223 12.6987C16.8839 12.8778 16.724 13.0271 16.5365 13.138L15.6431 11.7682ZM18.1216 10.3557C18.1216 10.2235 18.1906 10.1063 18.3062 10.0422C18.4219 9.97808 18.5579 9.98173 18.6699 10.0518L19.514 10.5793C19.6195 10.6453 19.6825 10.7589 19.6825 10.8833V15.2986C19.6825 15.3022 19.6823 15.3058 19.6822 15.3095L18.1101 13.3444L18.1216 10.3557ZM18.7217 16.4887L17.342 14.3731C17.5958 14.1761 17.8171 13.9572 17.9953 13.7089L19.583 15.6936C19.3684 16.0131 19.0767 16.2747 18.7217 16.4887Z" fill="black"/>
</svg>
