<?xml version="1.0" encoding="UTF-8"?>
<svg width="82px" height="82px" viewBox="0 0 82 82" version="1.1" xmlns="http://www.w3.org/2000/svg" xmlns:xlink="http://www.w3.org/1999/xlink">
    <!-- Generator: Sketch 53.2 (72643) - https://sketchapp.com -->
    <title>noun_Ticket_943834</title>
    <desc>Created with Sketch.</desc>
    <g id="Page-1" stroke="none" stroke-width="1" fill="none" fill-rule="evenodd">
        <g id="Artboard" transform="translate(-931.000000, -682.000000)" fill="#000000" fill-rule="nonzero">
            <g id="noun_Ticket_943834" transform="translate(931.000000, 682.000000)">
                <g id="Group">
                    <path d="M31.5521739,1.33695652 L23.2630435,9.62608696 C22.7282609,10.1608696 22.6391304,10.9630435 22.9956522,11.676087 C25.223913,14.8847826 24.7782609,19.2521739 22.0152174,22.0152174 C19.2521739,24.7782609 14.8847826,25.223913 11.676087,22.9956522 C11.0521739,22.55 10.1608696,22.7282609 9.62608696,23.2630435 L1.33695652,31.5521739 C0.713043478,32.176087 0.713043478,33.2456522 1.33695652,33.7804348 L48.2195652,80.6630435 C48.8434783,81.2869565 49.9130435,81.2869565 50.4478261,80.6630435 L58.023913,73.0869565 C58.6478261,72.4630435 58.6478261,71.5717391 58.1130435,70.8586957 C55.4391304,67.65 55.6173913,62.926087 58.6478261,59.8956522 C61.6782609,56.8652174 66.4021739,56.6869565 69.6108696,59.3608696 C70.323913,59.8956522 71.2152174,59.8956522 71.8391304,59.2717391 L80.7521739,50.3586957 C81.376087,49.7347826 81.376087,48.6652174 80.7521739,48.1304348 L33.7804348,1.33695652 C33.2456522,0.713043478 32.176087,0.713043478 31.5521739,1.33695652 Z M70.5913043,56.0630435 C66.1347826,53.3 60.3413043,53.8347826 56.4195652,57.6673913 C52.5869565,61.5 52.0521739,67.2934783 54.8152174,71.75 L49.2891304,77.276087 L19.073913,47.0608696 L22.1043478,44.0304348 L19.876087,41.8021739 L16.8456522,44.8326087 L4.72391304,32.7108696 L10.9630435,26.4717391 C15.3304348,28.7 20.6782609,27.8978261 24.2434783,24.3326087 C27.8086957,20.7673913 28.6108696,15.4195652 26.3826087,11.0521739 L32.6217391,4.81304348 L44.7434783,16.9347826 L41.7130435,19.9652174 L43.9413043,22.1934783 L46.9717391,19.1630435 L77.1869565,49.3782609 L70.5913043,56.0630435 Z" id="Shape"></path>
                    <polygon id="Rectangle" transform="translate(25.539114, 38.364110) rotate(135.000000) translate(-25.539114, -38.364110) " points="22.8652265 36.7597776 28.2130013 36.7597776 28.2130013 39.9684424 22.8652265 39.9684424"></polygon>
                    <polygon id="Rectangle" transform="translate(31.963012, 31.930978) rotate(135.000000) translate(-31.963012, -31.930978) " points="29.2891243 30.3266458 34.6368991 30.3266458 34.6368991 33.5353107 29.2891243 33.5353107"></polygon>
                    <polygon id="Rectangle" transform="translate(38.386910, 25.497847) rotate(135.000000) translate(-38.386910, -25.497847) " points="35.7130222 23.8935141 41.060797 23.8935141 41.060797 27.102179 35.7130222 27.102179"></polygon>
                    <polygon id="Rectangle" transform="translate(42.506893, 42.511474) rotate(135.000000) translate(-42.506893, -42.511474) " points="30.741788 40.9071415 54.2719972 40.9071415 54.2719972 44.1158064 30.741788 44.1158064"></polygon>
                    <polygon id="Rectangle" transform="translate(49.348081, 49.313285) rotate(135.000000) translate(-49.348081, -49.313285) " points="37.5829767 47.7089523 61.1131859 47.7089523 61.1131859 50.9176172 37.5829767 50.9176172"></polygon>
                </g>
            </g>
        </g>
    </g>
</svg>