<?xml version="1.0" encoding="UTF-8"?>
<svg width="81px" height="74px" viewBox="0 0 81 74" version="1.1" xmlns="http://www.w3.org/2000/svg" xmlns:xlink="http://www.w3.org/1999/xlink">
    <!-- Generator: Sketch 53.2 (72643) - https://sketchapp.com -->
    <title>noun_website_2270737</title>
    <desc>Created with Sketch.</desc>
    <g id="Page-1" stroke="none" stroke-width="1" fill="none" fill-rule="evenodd">
        <g id="Artboard" transform="translate(-1206.000000, -516.000000)" fill="#000000" fill-rule="nonzero">
            <g id="noun_website_2270737" transform="translate(1206.000000, 516.000000)">
                <path d="M37.9996808,74 C52.9111925,74.0003526 64.9996471,61.912327 65,47.000639 C65.0003529,32.088951 52.9124705,20.0003532 38.0009588,20 L37.9996808,20 C23.0881688,20 11,32.0883118 11,47 C11,61.9116882 23.0881688,74 37.9996808,74 Z M42.9702201,71.1731471 C47.4531877,67.6196687 50.8037525,62.8370458 52.6123292,57.4099236 L60.3401883,57.4099236 C57.0429024,64.4788751 50.6057333,69.5794139 42.9702201,71.1731471 L42.9702201,71.1731471 Z M62.6751657,47 C62.6697835,49.7543071 62.2003253,52.4880175 61.2865084,55.086316 L53.3167598,55.086316 C54.0257954,52.368251 54.385264,49.57085 54.3864645,46.7618255 C54.3837723,44.4859301 54.1483493,42.2162758 53.6838696,39.988281 L61.6458805,39.988281 C62.3259731,42.2635072 62.6726729,44.6253032 62.6751657,47 L62.6751657,47 Z M60.8284171,37.6645341 L53.1107006,37.6645341 C51.5413869,31.9816894 48.3155525,26.8948077 43.8443451,23.0522357 C51.5122871,24.9351856 57.8217707,30.3635691 60.8284171,37.6645341 L60.8284171,37.6645341 Z M39.162621,22.5470966 C44.7391395,25.9925705 48.8468559,31.3760823 50.6974982,37.6645341 L39.162621,37.6645341 L39.162621,22.5470966 Z M39.162621,39.9881881 L51.3069971,39.9881881 C51.8068878,42.2114338 52.0603633,44.4829802 52.062838,46.7617325 C52.0610872,49.5764321 51.6721812,52.3775142 50.9070545,55.0862231 L39.162621,55.0862231 L39.162621,39.9881881 Z M39.162621,57.4099236 L50.1580219,57.4099236 C48.1579854,62.9871719 44.3456476,67.7327293 39.3305844,70.8878024 C39.269392,70.9337273 39.2131196,70.9858655 39.162621,71.0433826 L39.162621,57.4099236 Z M36.8389945,71.0433826 C36.7885424,70.9858655 36.73227,70.9337273 36.6710776,70.8878024 C31.6557611,67.7328761 27.8432073,62.9872891 25.843094,57.4099236 L36.8389945,57.4099236 L36.8389945,71.0433826 Z M36.8389945,55.0862695 L25.0940033,55.0862695 C24.3288766,52.3775606 23.9399706,49.5764785 23.9382199,46.761779 C23.9406945,44.4830267 24.19417,42.2114803 24.6940607,39.9882346 L36.8389945,39.9882346 L36.8389945,55.0862695 Z M36.8389945,37.6645341 L25.303548,37.6645341 C27.1542168,31.3758392 31.2621638,25.9921628 36.8389945,22.5467364 L36.8389945,37.6645341 Z M32.1575492,23.0515038 C27.6858798,26.8941373 24.4597269,31.9813145 22.8903456,37.6645457 L15.1703752,37.6645457 C18.177458,30.362549 24.4882767,24.9337321 32.1575492,23.0515038 L32.1575492,23.0515038 Z M13.3236266,47 C13.3261104,44.6252721 13.6728103,42.2634441 14.3529118,39.9881881 L22.3171418,39.9881881 C21.852662,42.2161828 21.6172391,44.4858371 21.6145468,46.7617325 C21.6157474,49.5707571 21.975216,52.3681581 22.6842516,55.0862231 L14.7122839,55.0862231 C13.7984773,52.487954 13.3290193,49.7542758 13.3236266,47 Z M23.3887984,57.40997 C25.197582,62.8376333 28.548733,67.6206098 33.0324759,71.1740417 C25.395331,69.5812202 18.9564957,64.4801658 15.6586389,57.4099236 L23.3887984,57.40997 Z" id="Shape"></path>
                <path d="M79.8432283,3.95078313e-08 L1.15677174,3.95078313e-08 C0.84995235,-8.04407456e-05 0.555676572,0.122800017 0.338722495,0.341592085 C0.121768419,0.560384154 -7.97649924e-05,0.857152977 3.91759405e-08,1.16657168 L3.91759405e-08,54.8334283 C-7.97649924e-05,55.142847 0.121768419,55.4396158 0.338722495,55.6584079 C0.555676572,55.8772 0.84995235,56.0000804 1.15677174,56 L9.18583155,56 C9.82469892,56 10.3426032,55.477708 10.3426032,54.8334283 C10.3426032,54.1891486 9.82469892,53.6668567 9.18583155,53.6668567 L2.31354343,53.6668567 L2.31354343,12.5110259 L78.6864566,12.5110259 L78.6864566,53.6668567 L68.8900463,53.6668567 C68.2511789,53.6668567 67.7332746,54.1891486 67.7332746,54.8334283 C67.7332746,55.477708 68.2511789,56 68.8900463,56 L79.8432283,56 C80.1500477,56.0000804 80.4443234,55.8772 80.6612775,55.6584079 C80.8782316,55.4396158 81.0000798,55.142847 81,54.8334283 L81,1.16657168 C81.0000798,0.857152977 80.8782316,0.560384154 80.6612775,0.341592085 C80.4443234,0.122800017 80.1500477,-8.04407456e-05 79.8432283,3.95078313e-08 Z M78.6864566,10.1778826 L2.31354343,10.1778826 L2.31354343,2.33314332 L78.6864566,2.33314332 L78.6864566,10.1778826 Z" id="Shape"></path>
                <circle id="Oval" cx="7.5" cy="7.5" r="1.5"></circle>
                <circle id="Oval" cx="12.5" cy="7.5" r="1.5"></circle>
                <circle id="Oval" cx="17.5" cy="7.5" r="1.5"></circle>
            </g>
        </g>
    </g>
</svg>